<mxfile host="Electron" agent="Mozilla/5.0 (X11; Linux x86_64) AppleWebKit/537.36 (KHTML, like Gecko) draw.io/25.0.1 Chrome/128.0.6613.186 Electron/32.2.6 Safari/537.36" version="25.0.1" pages="5">
  <diagram name="Wayfarer Search Architecture" id="ICUgiFewR6XkXvMPwr8Q">
    <mxGraphModel dx="2261" dy="2012" grid="1" gridSize="10" guides="1" tooltips="1" connect="1" arrows="1" fold="1" page="1" pageScale="1" pageWidth="827" pageHeight="1169" math="0" shadow="0">
      <root>
        <mxCell id="0" />
        <mxCell id="1" parent="0" />
        <mxCell id="gFZsjCX-ImljTZDEBwQ--5" style="edgeStyle=orthogonalEdgeStyle;rounded=0;orthogonalLoop=1;jettySize=auto;html=1;entryX=0;entryY=0.5;entryDx=0;entryDy=0;" parent="1" source="gFZsjCX-ImljTZDEBwQ--1" target="gFZsjCX-ImljTZDEBwQ--3" edge="1">
          <mxGeometry relative="1" as="geometry" />
        </mxCell>
        <mxCell id="gFZsjCX-ImljTZDEBwQ--1" value="Reference&lt;br&gt;Cirrcuit" style="rounded=1;whiteSpace=wrap;html=1;" parent="1" vertex="1">
          <mxGeometry x="210" y="63" width="140" height="110" as="geometry" />
        </mxCell>
        <mxCell id="gFZsjCX-ImljTZDEBwQ--4" style="edgeStyle=orthogonalEdgeStyle;rounded=0;orthogonalLoop=1;jettySize=auto;html=1;entryX=0;entryY=0.5;entryDx=0;entryDy=0;" parent="1" source="gFZsjCX-ImljTZDEBwQ--2" target="gFZsjCX-ImljTZDEBwQ--1" edge="1">
          <mxGeometry relative="1" as="geometry" />
        </mxCell>
        <mxCell id="gFZsjCX-ImljTZDEBwQ--2" value="IN&lt;br&gt;F&lt;div&gt;I&lt;/div&gt;&lt;div&gt;F&lt;/div&gt;&lt;div&gt;O&lt;/div&gt;" style="rounded=1;whiteSpace=wrap;html=1;" parent="1" vertex="1">
          <mxGeometry x="20" y="33" width="120" height="170" as="geometry" />
        </mxCell>
        <mxCell id="gFZsjCX-ImljTZDEBwQ--3" value="Expectation&lt;br&gt;F&lt;div&gt;I&lt;/div&gt;&lt;div&gt;F&lt;/div&gt;&lt;div&gt;O&lt;/div&gt;" style="rounded=1;whiteSpace=wrap;html=1;" parent="1" vertex="1">
          <mxGeometry x="430" y="33" width="120" height="170" as="geometry" />
        </mxCell>
        <mxCell id="gFZsjCX-ImljTZDEBwQ--6" value="Circuit&lt;br&gt;Search&lt;br&gt;Agent" style="rounded=1;whiteSpace=wrap;html=1;" parent="1" vertex="1">
          <mxGeometry x="1085" y="500" width="200" height="190" as="geometry" />
        </mxCell>
        <mxCell id="BeNI8mrD9HNZx70J-mXm-42" style="edgeStyle=orthogonalEdgeStyle;rounded=0;orthogonalLoop=1;jettySize=auto;html=1;entryX=0;entryY=0.5;entryDx=0;entryDy=0;shape=flexArrow;" parent="1" source="gFZsjCX-ImljTZDEBwQ--10" target="BeNI8mrD9HNZx70J-mXm-32" edge="1">
          <mxGeometry relative="1" as="geometry" />
        </mxCell>
        <mxCell id="gFZsjCX-ImljTZDEBwQ--10" value="Comparator" style="rounded=1;whiteSpace=wrap;html=1;" parent="1" vertex="1">
          <mxGeometry x="1295" y="630" width="80" height="60" as="geometry" />
        </mxCell>
        <mxCell id="gFZsjCX-ImljTZDEBwQ--11" value="Expectation&lt;br&gt;F&lt;div&gt;I&lt;/div&gt;&lt;div&gt;F&lt;/div&gt;&lt;div&gt;O&lt;/div&gt;" style="rounded=1;whiteSpace=wrap;html=1;" parent="1" vertex="1">
          <mxGeometry x="1295" y="500" width="80" height="120" as="geometry" />
        </mxCell>
        <mxCell id="gFZsjCX-ImljTZDEBwQ--12" value="IN&lt;br&gt;F&lt;div&gt;I&lt;/div&gt;&lt;div&gt;F&lt;/div&gt;&lt;div&gt;O&lt;/div&gt;" style="rounded=1;whiteSpace=wrap;html=1;" parent="1" vertex="1">
          <mxGeometry x="1005" y="500" width="70" height="130" as="geometry" />
        </mxCell>
        <mxCell id="gFZsjCX-ImljTZDEBwQ--13" value="Agent&lt;br&gt;Config" style="rounded=1;whiteSpace=wrap;html=1;" parent="1" vertex="1">
          <mxGeometry x="1005" y="630" width="70" height="60" as="geometry" />
        </mxCell>
        <mxCell id="gFZsjCX-ImljTZDEBwQ--14" value="Circuit&lt;br&gt;Search&lt;br&gt;Agent" style="rounded=1;whiteSpace=wrap;html=1;" parent="1" vertex="1">
          <mxGeometry x="1670" y="500" width="200" height="190" as="geometry" />
        </mxCell>
        <mxCell id="BeNI8mrD9HNZx70J-mXm-8" style="edgeStyle=orthogonalEdgeStyle;rounded=0;orthogonalLoop=1;jettySize=auto;html=1;entryX=0;entryY=0.5;entryDx=0;entryDy=0;shape=flexArrow;" parent="1" source="gFZsjCX-ImljTZDEBwQ--15" target="BeNI8mrD9HNZx70J-mXm-7" edge="1">
          <mxGeometry relative="1" as="geometry" />
        </mxCell>
        <mxCell id="gFZsjCX-ImljTZDEBwQ--15" value="Comparator" style="rounded=1;whiteSpace=wrap;html=1;" parent="1" vertex="1">
          <mxGeometry x="1880" y="630" width="80" height="60" as="geometry" />
        </mxCell>
        <mxCell id="gFZsjCX-ImljTZDEBwQ--16" value="Expectation&lt;br&gt;F&lt;div&gt;I&lt;/div&gt;&lt;div&gt;F&lt;/div&gt;&lt;div&gt;O&lt;/div&gt;" style="rounded=1;whiteSpace=wrap;html=1;" parent="1" vertex="1">
          <mxGeometry x="1880" y="500" width="80" height="120" as="geometry" />
        </mxCell>
        <mxCell id="gFZsjCX-ImljTZDEBwQ--17" value="IN&lt;br&gt;F&lt;div&gt;I&lt;/div&gt;&lt;div&gt;F&lt;/div&gt;&lt;div&gt;O&lt;/div&gt;" style="rounded=1;whiteSpace=wrap;html=1;" parent="1" vertex="1">
          <mxGeometry x="1590" y="500" width="70" height="130" as="geometry" />
        </mxCell>
        <mxCell id="gFZsjCX-ImljTZDEBwQ--18" value="Agent&lt;br&gt;Config" style="rounded=1;whiteSpace=wrap;html=1;" parent="1" vertex="1">
          <mxGeometry x="1590" y="630" width="70" height="60" as="geometry" />
        </mxCell>
        <mxCell id="gFZsjCX-ImljTZDEBwQ--19" value="Circuit&lt;br&gt;Search&lt;br&gt;Agent" style="rounded=1;whiteSpace=wrap;html=1;" parent="1" vertex="1">
          <mxGeometry x="1080" y="750" width="200" height="190" as="geometry" />
        </mxCell>
        <mxCell id="BeNI8mrD9HNZx70J-mXm-41" style="edgeStyle=orthogonalEdgeStyle;rounded=0;orthogonalLoop=1;jettySize=auto;html=1;shape=flexArrow;" parent="1" source="gFZsjCX-ImljTZDEBwQ--20" target="BeNI8mrD9HNZx70J-mXm-34" edge="1">
          <mxGeometry relative="1" as="geometry" />
        </mxCell>
        <mxCell id="gFZsjCX-ImljTZDEBwQ--20" value="Comparator" style="rounded=1;whiteSpace=wrap;html=1;" parent="1" vertex="1">
          <mxGeometry x="1290" y="880" width="80" height="60" as="geometry" />
        </mxCell>
        <mxCell id="gFZsjCX-ImljTZDEBwQ--21" value="Expectation&lt;br&gt;F&lt;div&gt;I&lt;/div&gt;&lt;div&gt;F&lt;/div&gt;&lt;div&gt;O&lt;/div&gt;" style="rounded=1;whiteSpace=wrap;html=1;" parent="1" vertex="1">
          <mxGeometry x="1290" y="750" width="80" height="120" as="geometry" />
        </mxCell>
        <mxCell id="gFZsjCX-ImljTZDEBwQ--22" value="IN&lt;br&gt;F&lt;div&gt;I&lt;/div&gt;&lt;div&gt;F&lt;/div&gt;&lt;div&gt;O&lt;/div&gt;" style="rounded=1;whiteSpace=wrap;html=1;" parent="1" vertex="1">
          <mxGeometry x="1000" y="750" width="70" height="130" as="geometry" />
        </mxCell>
        <mxCell id="gFZsjCX-ImljTZDEBwQ--23" value="Agent&lt;br&gt;Config" style="rounded=1;whiteSpace=wrap;html=1;" parent="1" vertex="1">
          <mxGeometry x="1000" y="880" width="70" height="60" as="geometry" />
        </mxCell>
        <mxCell id="gFZsjCX-ImljTZDEBwQ--24" value="Circuit&lt;br&gt;Search&lt;br&gt;Agent" style="rounded=1;whiteSpace=wrap;html=1;" parent="1" vertex="1">
          <mxGeometry x="1680" y="750" width="200" height="190" as="geometry" />
        </mxCell>
        <mxCell id="BeNI8mrD9HNZx70J-mXm-13" style="edgeStyle=orthogonalEdgeStyle;rounded=0;orthogonalLoop=1;jettySize=auto;html=1;exitX=1;exitY=0.5;exitDx=0;exitDy=0;entryX=0;entryY=0.5;entryDx=0;entryDy=0;shape=flexArrow;" parent="1" source="gFZsjCX-ImljTZDEBwQ--25" target="BeNI8mrD9HNZx70J-mXm-12" edge="1">
          <mxGeometry relative="1" as="geometry" />
        </mxCell>
        <mxCell id="gFZsjCX-ImljTZDEBwQ--25" value="Comparator" style="rounded=1;whiteSpace=wrap;html=1;" parent="1" vertex="1">
          <mxGeometry x="1890" y="880" width="80" height="60" as="geometry" />
        </mxCell>
        <mxCell id="gFZsjCX-ImljTZDEBwQ--26" value="Expectation&lt;br&gt;F&lt;div&gt;I&lt;/div&gt;&lt;div&gt;F&lt;/div&gt;&lt;div&gt;O&lt;/div&gt;" style="rounded=1;whiteSpace=wrap;html=1;" parent="1" vertex="1">
          <mxGeometry x="1890" y="750" width="80" height="120" as="geometry" />
        </mxCell>
        <mxCell id="gFZsjCX-ImljTZDEBwQ--27" value="IN&lt;br&gt;F&lt;div&gt;I&lt;/div&gt;&lt;div&gt;F&lt;/div&gt;&lt;div&gt;O&lt;/div&gt;" style="rounded=1;whiteSpace=wrap;html=1;" parent="1" vertex="1">
          <mxGeometry x="1600" y="750" width="70" height="130" as="geometry" />
        </mxCell>
        <mxCell id="gFZsjCX-ImljTZDEBwQ--28" value="Agent&lt;br&gt;Config" style="rounded=1;whiteSpace=wrap;html=1;" parent="1" vertex="1">
          <mxGeometry x="1600" y="880" width="70" height="60" as="geometry" />
        </mxCell>
        <mxCell id="gFZsjCX-ImljTZDEBwQ--29" value="Circuit&lt;br&gt;Search&lt;br&gt;Agent" style="rounded=1;whiteSpace=wrap;html=1;" parent="1" vertex="1">
          <mxGeometry x="1085" y="1020" width="200" height="190" as="geometry" />
        </mxCell>
        <mxCell id="BeNI8mrD9HNZx70J-mXm-40" style="edgeStyle=orthogonalEdgeStyle;rounded=0;orthogonalLoop=1;jettySize=auto;html=1;shape=flexArrow;" parent="1" source="gFZsjCX-ImljTZDEBwQ--30" target="BeNI8mrD9HNZx70J-mXm-36" edge="1">
          <mxGeometry relative="1" as="geometry" />
        </mxCell>
        <mxCell id="gFZsjCX-ImljTZDEBwQ--30" value="Comparator" style="rounded=1;whiteSpace=wrap;html=1;" parent="1" vertex="1">
          <mxGeometry x="1295" y="1150" width="80" height="60" as="geometry" />
        </mxCell>
        <mxCell id="gFZsjCX-ImljTZDEBwQ--31" value="Expectation&lt;br&gt;F&lt;div&gt;I&lt;/div&gt;&lt;div&gt;F&lt;/div&gt;&lt;div&gt;O&lt;/div&gt;" style="rounded=1;whiteSpace=wrap;html=1;" parent="1" vertex="1">
          <mxGeometry x="1295" y="1020" width="80" height="120" as="geometry" />
        </mxCell>
        <mxCell id="gFZsjCX-ImljTZDEBwQ--32" value="IN&lt;br&gt;F&lt;div&gt;I&lt;/div&gt;&lt;div&gt;F&lt;/div&gt;&lt;div&gt;O&lt;/div&gt;" style="rounded=1;whiteSpace=wrap;html=1;" parent="1" vertex="1">
          <mxGeometry x="1005" y="1020" width="70" height="130" as="geometry" />
        </mxCell>
        <mxCell id="gFZsjCX-ImljTZDEBwQ--33" value="Agent&lt;br&gt;Config" style="rounded=1;whiteSpace=wrap;html=1;" parent="1" vertex="1">
          <mxGeometry x="1005" y="1150" width="70" height="60" as="geometry" />
        </mxCell>
        <mxCell id="gFZsjCX-ImljTZDEBwQ--34" value="Circuit&lt;br&gt;Search&lt;br&gt;Agent" style="rounded=1;whiteSpace=wrap;html=1;" parent="1" vertex="1">
          <mxGeometry x="1670" y="1020" width="200" height="190" as="geometry" />
        </mxCell>
        <mxCell id="BeNI8mrD9HNZx70J-mXm-27" style="edgeStyle=orthogonalEdgeStyle;rounded=0;orthogonalLoop=1;jettySize=auto;html=1;shape=flexArrow;" parent="1" source="gFZsjCX-ImljTZDEBwQ--35" target="BeNI8mrD9HNZx70J-mXm-25" edge="1">
          <mxGeometry relative="1" as="geometry" />
        </mxCell>
        <mxCell id="gFZsjCX-ImljTZDEBwQ--35" value="Comparator" style="rounded=1;whiteSpace=wrap;html=1;" parent="1" vertex="1">
          <mxGeometry x="1880" y="1150" width="80" height="60" as="geometry" />
        </mxCell>
        <mxCell id="gFZsjCX-ImljTZDEBwQ--36" value="Expectation&lt;br&gt;F&lt;div&gt;I&lt;/div&gt;&lt;div&gt;F&lt;/div&gt;&lt;div&gt;O&lt;/div&gt;" style="rounded=1;whiteSpace=wrap;html=1;" parent="1" vertex="1">
          <mxGeometry x="1880" y="1020" width="80" height="120" as="geometry" />
        </mxCell>
        <mxCell id="gFZsjCX-ImljTZDEBwQ--37" value="IN&lt;br&gt;F&lt;div&gt;I&lt;/div&gt;&lt;div&gt;F&lt;/div&gt;&lt;div&gt;O&lt;/div&gt;" style="rounded=1;whiteSpace=wrap;html=1;" parent="1" vertex="1">
          <mxGeometry x="1590" y="1020" width="70" height="130" as="geometry" />
        </mxCell>
        <mxCell id="gFZsjCX-ImljTZDEBwQ--38" value="Agent&lt;br&gt;Config" style="rounded=1;whiteSpace=wrap;html=1;" parent="1" vertex="1">
          <mxGeometry x="1590" y="1150" width="70" height="60" as="geometry" />
        </mxCell>
        <mxCell id="gFZsjCX-ImljTZDEBwQ--39" value="Circuit&lt;br&gt;Search&lt;br&gt;Agent" style="rounded=1;whiteSpace=wrap;html=1;" parent="1" vertex="1">
          <mxGeometry x="1080" y="1270" width="200" height="190" as="geometry" />
        </mxCell>
        <mxCell id="BeNI8mrD9HNZx70J-mXm-39" style="edgeStyle=orthogonalEdgeStyle;rounded=0;orthogonalLoop=1;jettySize=auto;html=1;entryX=0;entryY=0.5;entryDx=0;entryDy=0;shape=flexArrow;" parent="1" source="gFZsjCX-ImljTZDEBwQ--40" target="BeNI8mrD9HNZx70J-mXm-38" edge="1">
          <mxGeometry relative="1" as="geometry" />
        </mxCell>
        <mxCell id="gFZsjCX-ImljTZDEBwQ--40" value="Comparator" style="rounded=1;whiteSpace=wrap;html=1;" parent="1" vertex="1">
          <mxGeometry x="1290" y="1400" width="80" height="60" as="geometry" />
        </mxCell>
        <mxCell id="gFZsjCX-ImljTZDEBwQ--41" value="Expectation&lt;br&gt;F&lt;div&gt;I&lt;/div&gt;&lt;div&gt;F&lt;/div&gt;&lt;div&gt;O&lt;/div&gt;" style="rounded=1;whiteSpace=wrap;html=1;" parent="1" vertex="1">
          <mxGeometry x="1290" y="1270" width="80" height="120" as="geometry" />
        </mxCell>
        <mxCell id="gFZsjCX-ImljTZDEBwQ--42" value="IN&lt;br&gt;F&lt;div&gt;I&lt;/div&gt;&lt;div&gt;F&lt;/div&gt;&lt;div&gt;O&lt;/div&gt;" style="rounded=1;whiteSpace=wrap;html=1;" parent="1" vertex="1">
          <mxGeometry x="1000" y="1270" width="70" height="130" as="geometry" />
        </mxCell>
        <mxCell id="gFZsjCX-ImljTZDEBwQ--43" value="Agent&lt;br&gt;Config" style="rounded=1;whiteSpace=wrap;html=1;" parent="1" vertex="1">
          <mxGeometry x="1000" y="1400" width="70" height="60" as="geometry" />
        </mxCell>
        <mxCell id="gFZsjCX-ImljTZDEBwQ--44" value="Circuit&lt;br&gt;Search&lt;br&gt;Agent" style="rounded=1;whiteSpace=wrap;html=1;" parent="1" vertex="1">
          <mxGeometry x="1680" y="1270" width="200" height="190" as="geometry" />
        </mxCell>
        <mxCell id="BeNI8mrD9HNZx70J-mXm-29" style="edgeStyle=orthogonalEdgeStyle;rounded=0;orthogonalLoop=1;jettySize=auto;html=1;entryX=0;entryY=0.5;entryDx=0;entryDy=0;shape=flexArrow;" parent="1" source="gFZsjCX-ImljTZDEBwQ--45" target="BeNI8mrD9HNZx70J-mXm-28" edge="1">
          <mxGeometry relative="1" as="geometry" />
        </mxCell>
        <mxCell id="gFZsjCX-ImljTZDEBwQ--45" value="Comparator" style="rounded=1;whiteSpace=wrap;html=1;" parent="1" vertex="1">
          <mxGeometry x="1890" y="1400" width="80" height="60" as="geometry" />
        </mxCell>
        <mxCell id="gFZsjCX-ImljTZDEBwQ--46" value="Expectation&lt;br&gt;F&lt;div&gt;I&lt;/div&gt;&lt;div&gt;F&lt;/div&gt;&lt;div&gt;O&lt;/div&gt;" style="rounded=1;whiteSpace=wrap;html=1;" parent="1" vertex="1">
          <mxGeometry x="1890" y="1270" width="80" height="120" as="geometry" />
        </mxCell>
        <mxCell id="gFZsjCX-ImljTZDEBwQ--47" value="IN&lt;br&gt;F&lt;div&gt;I&lt;/div&gt;&lt;div&gt;F&lt;/div&gt;&lt;div&gt;O&lt;/div&gt;" style="rounded=1;whiteSpace=wrap;html=1;" parent="1" vertex="1">
          <mxGeometry x="1600" y="1270" width="70" height="130" as="geometry" />
        </mxCell>
        <mxCell id="gFZsjCX-ImljTZDEBwQ--48" value="Agent&lt;br&gt;Config" style="rounded=1;whiteSpace=wrap;html=1;" parent="1" vertex="1">
          <mxGeometry x="1600" y="1400" width="70" height="60" as="geometry" />
        </mxCell>
        <mxCell id="gFZsjCX-ImljTZDEBwQ--49" value="Circuit&lt;br&gt;Search&lt;br&gt;Agent" style="rounded=1;whiteSpace=wrap;html=1;" parent="1" vertex="1">
          <mxGeometry x="-95" y="500" width="200" height="190" as="geometry" />
        </mxCell>
        <mxCell id="BeNI8mrD9HNZx70J-mXm-116" style="edgeStyle=orthogonalEdgeStyle;rounded=0;orthogonalLoop=1;jettySize=auto;html=1;entryX=0;entryY=0.5;entryDx=0;entryDy=0;shape=flexArrow;" parent="1" source="gFZsjCX-ImljTZDEBwQ--50" target="BeNI8mrD9HNZx70J-mXm-106" edge="1">
          <mxGeometry relative="1" as="geometry" />
        </mxCell>
        <mxCell id="gFZsjCX-ImljTZDEBwQ--50" value="Comparator" style="rounded=1;whiteSpace=wrap;html=1;" parent="1" vertex="1">
          <mxGeometry x="115" y="630" width="80" height="60" as="geometry" />
        </mxCell>
        <mxCell id="gFZsjCX-ImljTZDEBwQ--51" value="Expectation&lt;br&gt;F&lt;div&gt;I&lt;/div&gt;&lt;div&gt;F&lt;/div&gt;&lt;div&gt;O&lt;/div&gt;" style="rounded=1;whiteSpace=wrap;html=1;" parent="1" vertex="1">
          <mxGeometry x="115" y="500" width="80" height="120" as="geometry" />
        </mxCell>
        <mxCell id="gFZsjCX-ImljTZDEBwQ--52" value="IN&lt;br&gt;F&lt;div&gt;I&lt;/div&gt;&lt;div&gt;F&lt;/div&gt;&lt;div&gt;O&lt;/div&gt;" style="rounded=1;whiteSpace=wrap;html=1;" parent="1" vertex="1">
          <mxGeometry x="-175" y="500" width="70" height="130" as="geometry" />
        </mxCell>
        <mxCell id="gFZsjCX-ImljTZDEBwQ--53" value="Agent&lt;br&gt;Config" style="rounded=1;whiteSpace=wrap;html=1;" parent="1" vertex="1">
          <mxGeometry x="-175" y="630" width="70" height="60" as="geometry" />
        </mxCell>
        <mxCell id="gFZsjCX-ImljTZDEBwQ--54" value="Circuit&lt;br&gt;Search&lt;br&gt;Agent" style="rounded=1;whiteSpace=wrap;html=1;" parent="1" vertex="1">
          <mxGeometry x="470" y="500" width="200" height="190" as="geometry" />
        </mxCell>
        <mxCell id="BeNI8mrD9HNZx70J-mXm-102" style="edgeStyle=orthogonalEdgeStyle;rounded=0;orthogonalLoop=1;jettySize=auto;html=1;entryX=0;entryY=0.5;entryDx=0;entryDy=0;shape=flexArrow;" parent="1" source="gFZsjCX-ImljTZDEBwQ--55" target="BeNI8mrD9HNZx70J-mXm-93" edge="1">
          <mxGeometry relative="1" as="geometry" />
        </mxCell>
        <mxCell id="gFZsjCX-ImljTZDEBwQ--55" value="Comparator" style="rounded=1;whiteSpace=wrap;html=1;" parent="1" vertex="1">
          <mxGeometry x="680" y="630" width="80" height="60" as="geometry" />
        </mxCell>
        <mxCell id="gFZsjCX-ImljTZDEBwQ--56" value="Expectation&lt;br&gt;F&lt;div&gt;I&lt;/div&gt;&lt;div&gt;F&lt;/div&gt;&lt;div&gt;O&lt;/div&gt;" style="rounded=1;whiteSpace=wrap;html=1;" parent="1" vertex="1">
          <mxGeometry x="680" y="500" width="80" height="120" as="geometry" />
        </mxCell>
        <mxCell id="gFZsjCX-ImljTZDEBwQ--57" value="IN&lt;br&gt;F&lt;div&gt;I&lt;/div&gt;&lt;div&gt;F&lt;/div&gt;&lt;div&gt;O&lt;/div&gt;" style="rounded=1;whiteSpace=wrap;html=1;" parent="1" vertex="1">
          <mxGeometry x="390" y="500" width="70" height="130" as="geometry" />
        </mxCell>
        <mxCell id="gFZsjCX-ImljTZDEBwQ--58" value="Agent&lt;br&gt;Config" style="rounded=1;whiteSpace=wrap;html=1;" parent="1" vertex="1">
          <mxGeometry x="390" y="630" width="70" height="60" as="geometry" />
        </mxCell>
        <mxCell id="gFZsjCX-ImljTZDEBwQ--59" value="Circuit&lt;br&gt;Search&lt;br&gt;Agent" style="rounded=1;whiteSpace=wrap;html=1;" parent="1" vertex="1">
          <mxGeometry x="-100" y="750" width="200" height="190" as="geometry" />
        </mxCell>
        <mxCell id="BeNI8mrD9HNZx70J-mXm-115" value="" style="edgeStyle=orthogonalEdgeStyle;rounded=0;orthogonalLoop=1;jettySize=auto;html=1;shape=flexArrow;" parent="1" source="gFZsjCX-ImljTZDEBwQ--60" target="BeNI8mrD9HNZx70J-mXm-108" edge="1">
          <mxGeometry relative="1" as="geometry" />
        </mxCell>
        <mxCell id="gFZsjCX-ImljTZDEBwQ--60" value="Comparator" style="rounded=1;whiteSpace=wrap;html=1;" parent="1" vertex="1">
          <mxGeometry x="110" y="880" width="80" height="60" as="geometry" />
        </mxCell>
        <mxCell id="gFZsjCX-ImljTZDEBwQ--61" value="Expectation&lt;br&gt;F&lt;div&gt;I&lt;/div&gt;&lt;div&gt;F&lt;/div&gt;&lt;div&gt;O&lt;/div&gt;" style="rounded=1;whiteSpace=wrap;html=1;" parent="1" vertex="1">
          <mxGeometry x="110" y="750" width="80" height="120" as="geometry" />
        </mxCell>
        <mxCell id="gFZsjCX-ImljTZDEBwQ--62" value="IN&lt;br&gt;F&lt;div&gt;I&lt;/div&gt;&lt;div&gt;F&lt;/div&gt;&lt;div&gt;O&lt;/div&gt;" style="rounded=1;whiteSpace=wrap;html=1;" parent="1" vertex="1">
          <mxGeometry x="-180" y="750" width="70" height="130" as="geometry" />
        </mxCell>
        <mxCell id="gFZsjCX-ImljTZDEBwQ--63" value="Agent&lt;br&gt;Config" style="rounded=1;whiteSpace=wrap;html=1;" parent="1" vertex="1">
          <mxGeometry x="-180" y="880" width="70" height="60" as="geometry" />
        </mxCell>
        <mxCell id="gFZsjCX-ImljTZDEBwQ--64" value="Circuit&lt;br&gt;Search&lt;br&gt;Agent" style="rounded=1;whiteSpace=wrap;html=1;" parent="1" vertex="1">
          <mxGeometry x="480" y="750" width="200" height="190" as="geometry" />
        </mxCell>
        <mxCell id="BeNI8mrD9HNZx70J-mXm-101" style="edgeStyle=orthogonalEdgeStyle;rounded=0;orthogonalLoop=1;jettySize=auto;html=1;entryX=0;entryY=0.5;entryDx=0;entryDy=0;shape=flexArrow;" parent="1" source="gFZsjCX-ImljTZDEBwQ--65" target="BeNI8mrD9HNZx70J-mXm-95" edge="1">
          <mxGeometry relative="1" as="geometry" />
        </mxCell>
        <mxCell id="gFZsjCX-ImljTZDEBwQ--65" value="Comparator" style="rounded=1;whiteSpace=wrap;html=1;" parent="1" vertex="1">
          <mxGeometry x="690" y="880" width="80" height="60" as="geometry" />
        </mxCell>
        <mxCell id="gFZsjCX-ImljTZDEBwQ--66" value="Expectation&lt;br&gt;F&lt;div&gt;I&lt;/div&gt;&lt;div&gt;F&lt;/div&gt;&lt;div&gt;O&lt;/div&gt;" style="rounded=1;whiteSpace=wrap;html=1;" parent="1" vertex="1">
          <mxGeometry x="690" y="750" width="80" height="120" as="geometry" />
        </mxCell>
        <mxCell id="gFZsjCX-ImljTZDEBwQ--67" value="IN&lt;br&gt;F&lt;div&gt;I&lt;/div&gt;&lt;div&gt;F&lt;/div&gt;&lt;div&gt;O&lt;/div&gt;" style="rounded=1;whiteSpace=wrap;html=1;" parent="1" vertex="1">
          <mxGeometry x="400" y="750" width="70" height="130" as="geometry" />
        </mxCell>
        <mxCell id="gFZsjCX-ImljTZDEBwQ--68" value="Agent&lt;br&gt;Config" style="rounded=1;whiteSpace=wrap;html=1;" parent="1" vertex="1">
          <mxGeometry x="400" y="880" width="70" height="60" as="geometry" />
        </mxCell>
        <mxCell id="gFZsjCX-ImljTZDEBwQ--69" value="Circuit&lt;br&gt;Search&lt;br&gt;Agent" style="rounded=1;whiteSpace=wrap;html=1;" parent="1" vertex="1">
          <mxGeometry x="-95" y="1020" width="200" height="190" as="geometry" />
        </mxCell>
        <mxCell id="BeNI8mrD9HNZx70J-mXm-114" style="edgeStyle=orthogonalEdgeStyle;rounded=0;orthogonalLoop=1;jettySize=auto;html=1;shape=flexArrow;" parent="1" source="gFZsjCX-ImljTZDEBwQ--70" target="BeNI8mrD9HNZx70J-mXm-110" edge="1">
          <mxGeometry relative="1" as="geometry" />
        </mxCell>
        <mxCell id="gFZsjCX-ImljTZDEBwQ--70" value="Comparator" style="rounded=1;whiteSpace=wrap;html=1;" parent="1" vertex="1">
          <mxGeometry x="115" y="1150" width="80" height="60" as="geometry" />
        </mxCell>
        <mxCell id="gFZsjCX-ImljTZDEBwQ--71" value="Expectation&lt;br&gt;F&lt;div&gt;I&lt;/div&gt;&lt;div&gt;F&lt;/div&gt;&lt;div&gt;O&lt;/div&gt;" style="rounded=1;whiteSpace=wrap;html=1;" parent="1" vertex="1">
          <mxGeometry x="115" y="1020" width="80" height="120" as="geometry" />
        </mxCell>
        <mxCell id="gFZsjCX-ImljTZDEBwQ--72" value="IN&lt;br&gt;F&lt;div&gt;I&lt;/div&gt;&lt;div&gt;F&lt;/div&gt;&lt;div&gt;O&lt;/div&gt;" style="rounded=1;whiteSpace=wrap;html=1;" parent="1" vertex="1">
          <mxGeometry x="-175" y="1020" width="70" height="130" as="geometry" />
        </mxCell>
        <mxCell id="gFZsjCX-ImljTZDEBwQ--73" value="Agent&lt;br&gt;Config" style="rounded=1;whiteSpace=wrap;html=1;" parent="1" vertex="1">
          <mxGeometry x="-175" y="1150" width="70" height="60" as="geometry" />
        </mxCell>
        <mxCell id="gFZsjCX-ImljTZDEBwQ--74" value="Circuit&lt;br&gt;Search&lt;br&gt;Agent" style="rounded=1;whiteSpace=wrap;html=1;" parent="1" vertex="1">
          <mxGeometry x="470" y="1020" width="200" height="190" as="geometry" />
        </mxCell>
        <mxCell id="gFZsjCX-ImljTZDEBwQ--75" value="Comparator" style="rounded=1;whiteSpace=wrap;html=1;" parent="1" vertex="1">
          <mxGeometry x="680" y="1150" width="80" height="60" as="geometry" />
        </mxCell>
        <mxCell id="gFZsjCX-ImljTZDEBwQ--76" value="Expectation&lt;br&gt;F&lt;div&gt;I&lt;/div&gt;&lt;div&gt;F&lt;/div&gt;&lt;div&gt;O&lt;/div&gt;" style="rounded=1;whiteSpace=wrap;html=1;" parent="1" vertex="1">
          <mxGeometry x="680" y="1020" width="80" height="120" as="geometry" />
        </mxCell>
        <mxCell id="gFZsjCX-ImljTZDEBwQ--77" value="IN&lt;br&gt;F&lt;div&gt;I&lt;/div&gt;&lt;div&gt;F&lt;/div&gt;&lt;div&gt;O&lt;/div&gt;" style="rounded=1;whiteSpace=wrap;html=1;" parent="1" vertex="1">
          <mxGeometry x="390" y="1020" width="70" height="130" as="geometry" />
        </mxCell>
        <mxCell id="gFZsjCX-ImljTZDEBwQ--78" value="Agent&lt;br&gt;Config" style="rounded=1;whiteSpace=wrap;html=1;" parent="1" vertex="1">
          <mxGeometry x="390" y="1150" width="70" height="60" as="geometry" />
        </mxCell>
        <mxCell id="gFZsjCX-ImljTZDEBwQ--79" value="Circuit&lt;br&gt;Search&lt;br&gt;Agent" style="rounded=1;whiteSpace=wrap;html=1;" parent="1" vertex="1">
          <mxGeometry x="-100" y="1270" width="200" height="190" as="geometry" />
        </mxCell>
        <mxCell id="BeNI8mrD9HNZx70J-mXm-113" style="edgeStyle=orthogonalEdgeStyle;rounded=0;orthogonalLoop=1;jettySize=auto;html=1;entryX=0;entryY=0.5;entryDx=0;entryDy=0;shape=flexArrow;" parent="1" source="gFZsjCX-ImljTZDEBwQ--80" target="BeNI8mrD9HNZx70J-mXm-112" edge="1">
          <mxGeometry relative="1" as="geometry" />
        </mxCell>
        <mxCell id="gFZsjCX-ImljTZDEBwQ--80" value="Comparator" style="rounded=1;whiteSpace=wrap;html=1;" parent="1" vertex="1">
          <mxGeometry x="110" y="1400" width="80" height="60" as="geometry" />
        </mxCell>
        <mxCell id="gFZsjCX-ImljTZDEBwQ--81" value="Expectation&lt;br&gt;F&lt;div&gt;I&lt;/div&gt;&lt;div&gt;F&lt;/div&gt;&lt;div&gt;O&lt;/div&gt;" style="rounded=1;whiteSpace=wrap;html=1;" parent="1" vertex="1">
          <mxGeometry x="110" y="1270" width="80" height="120" as="geometry" />
        </mxCell>
        <mxCell id="gFZsjCX-ImljTZDEBwQ--82" value="IN&lt;br&gt;F&lt;div&gt;I&lt;/div&gt;&lt;div&gt;F&lt;/div&gt;&lt;div&gt;O&lt;/div&gt;" style="rounded=1;whiteSpace=wrap;html=1;" parent="1" vertex="1">
          <mxGeometry x="-180" y="1270" width="70" height="130" as="geometry" />
        </mxCell>
        <mxCell id="gFZsjCX-ImljTZDEBwQ--83" value="Agent&lt;br&gt;Config" style="rounded=1;whiteSpace=wrap;html=1;" parent="1" vertex="1">
          <mxGeometry x="-180" y="1400" width="70" height="60" as="geometry" />
        </mxCell>
        <mxCell id="gFZsjCX-ImljTZDEBwQ--84" value="Circuit&lt;br&gt;Search&lt;br&gt;Agent" style="rounded=1;whiteSpace=wrap;html=1;" parent="1" vertex="1">
          <mxGeometry x="480" y="1270" width="200" height="190" as="geometry" />
        </mxCell>
        <mxCell id="BeNI8mrD9HNZx70J-mXm-100" style="edgeStyle=orthogonalEdgeStyle;rounded=0;orthogonalLoop=1;jettySize=auto;html=1;entryX=0;entryY=0.5;entryDx=0;entryDy=0;shape=flexArrow;" parent="1" source="gFZsjCX-ImljTZDEBwQ--85" target="BeNI8mrD9HNZx70J-mXm-99" edge="1">
          <mxGeometry relative="1" as="geometry" />
        </mxCell>
        <mxCell id="gFZsjCX-ImljTZDEBwQ--85" value="Comparator" style="rounded=1;whiteSpace=wrap;html=1;" parent="1" vertex="1">
          <mxGeometry x="690" y="1400" width="80" height="60" as="geometry" />
        </mxCell>
        <mxCell id="gFZsjCX-ImljTZDEBwQ--86" value="Expectation&lt;br&gt;F&lt;div&gt;I&lt;/div&gt;&lt;div&gt;F&lt;/div&gt;&lt;div&gt;O&lt;/div&gt;" style="rounded=1;whiteSpace=wrap;html=1;" parent="1" vertex="1">
          <mxGeometry x="690" y="1270" width="80" height="120" as="geometry" />
        </mxCell>
        <mxCell id="gFZsjCX-ImljTZDEBwQ--87" value="IN&lt;br&gt;F&lt;div&gt;I&lt;/div&gt;&lt;div&gt;F&lt;/div&gt;&lt;div&gt;O&lt;/div&gt;" style="rounded=1;whiteSpace=wrap;html=1;" parent="1" vertex="1">
          <mxGeometry x="400" y="1270" width="70" height="130" as="geometry" />
        </mxCell>
        <mxCell id="gFZsjCX-ImljTZDEBwQ--88" value="Agent&lt;br&gt;Config" style="rounded=1;whiteSpace=wrap;html=1;" parent="1" vertex="1">
          <mxGeometry x="400" y="1400" width="70" height="60" as="geometry" />
        </mxCell>
        <mxCell id="BeNI8mrD9HNZx70J-mXm-122" style="edgeStyle=orthogonalEdgeStyle;rounded=0;orthogonalLoop=1;jettySize=auto;html=1;shape=flexArrow;" parent="1" source="BH3q-9FoLWFFWChYBNGu-1" target="BH3q-9FoLWFFWChYBNGu-2" edge="1">
          <mxGeometry relative="1" as="geometry" />
        </mxCell>
        <mxCell id="BH3q-9FoLWFFWChYBNGu-1" value="&lt;span style=&quot;font-size: 16px;&quot;&gt;&lt;b&gt;INPUT&lt;br&gt;STREAM&lt;/b&gt;&lt;/span&gt;" style="rounded=1;whiteSpace=wrap;html=1;" parent="1" vertex="1">
          <mxGeometry x="-650" y="-58" width="120" height="352" as="geometry" />
        </mxCell>
        <mxCell id="BeNI8mrD9HNZx70J-mXm-118" style="edgeStyle=orthogonalEdgeStyle;rounded=0;orthogonalLoop=1;jettySize=auto;html=1;" parent="1" source="BH3q-9FoLWFFWChYBNGu-2" target="gFZsjCX-ImljTZDEBwQ--2" edge="1">
          <mxGeometry relative="1" as="geometry" />
        </mxCell>
        <mxCell id="BeNI8mrD9HNZx70J-mXm-119" style="edgeStyle=orthogonalEdgeStyle;rounded=0;orthogonalLoop=1;jettySize=auto;html=1;entryX=0.5;entryY=0;entryDx=0;entryDy=0;" parent="1" source="BH3q-9FoLWFFWChYBNGu-2" target="gFZsjCX-ImljTZDEBwQ--1" edge="1">
          <mxGeometry relative="1" as="geometry">
            <Array as="points">
              <mxPoint x="-333" y="-20" />
              <mxPoint x="280" y="-20" />
            </Array>
          </mxGeometry>
        </mxCell>
        <mxCell id="BH3q-9FoLWFFWChYBNGu-2" value="CONTROLLER" style="rounded=1;whiteSpace=wrap;html=1;" parent="1" vertex="1">
          <mxGeometry x="-413" y="48" width="160" height="140" as="geometry" />
        </mxCell>
        <mxCell id="BH3q-9FoLWFFWChYBNGu-3" value="" style="endArrow=none;dashed=1;html=1;dashPattern=1 3;strokeWidth=2;rounded=0;" parent="1" edge="1">
          <mxGeometry width="50" height="50" relative="1" as="geometry">
            <mxPoint x="-340" y="190" as="sourcePoint" />
            <mxPoint x="-340" y="720" as="targetPoint" />
          </mxGeometry>
        </mxCell>
        <mxCell id="BH3q-9FoLWFFWChYBNGu-4" value="" style="endArrow=none;dashed=1;html=1;dashPattern=1 3;strokeWidth=2;rounded=0;" parent="1" edge="1">
          <mxGeometry width="50" height="50" relative="1" as="geometry">
            <mxPoint x="1770" y="720" as="sourcePoint" />
            <mxPoint x="-340" y="720" as="targetPoint" />
          </mxGeometry>
        </mxCell>
        <mxCell id="BH3q-9FoLWFFWChYBNGu-5" value="" style="endArrow=none;dashed=1;html=1;dashPattern=1 3;strokeWidth=2;rounded=0;" parent="1" edge="1">
          <mxGeometry width="50" height="50" relative="1" as="geometry">
            <mxPoint x="1781" y="980" as="sourcePoint" />
            <mxPoint x="-340" y="980" as="targetPoint" />
          </mxGeometry>
        </mxCell>
        <mxCell id="BH3q-9FoLWFFWChYBNGu-6" value="" style="endArrow=none;dashed=1;html=1;dashPattern=1 3;strokeWidth=2;rounded=0;" parent="1" edge="1">
          <mxGeometry width="50" height="50" relative="1" as="geometry">
            <mxPoint x="1770" y="1240" as="sourcePoint" />
            <mxPoint x="-340" y="1240" as="targetPoint" />
          </mxGeometry>
        </mxCell>
        <mxCell id="BH3q-9FoLWFFWChYBNGu-7" value="" style="endArrow=none;dashed=1;html=1;dashPattern=1 3;strokeWidth=2;rounded=0;" parent="1" edge="1">
          <mxGeometry width="50" height="50" relative="1" as="geometry">
            <mxPoint x="1756" y="1500" as="sourcePoint" />
            <mxPoint x="-354" y="1500" as="targetPoint" />
          </mxGeometry>
        </mxCell>
        <mxCell id="BH3q-9FoLWFFWChYBNGu-8" value="" style="endArrow=none;dashed=1;html=1;dashPattern=1 3;strokeWidth=2;rounded=0;" parent="1" edge="1">
          <mxGeometry width="50" height="50" relative="1" as="geometry">
            <mxPoint x="-340" y="1500" as="sourcePoint" />
            <mxPoint x="-340" y="720" as="targetPoint" />
          </mxGeometry>
        </mxCell>
        <mxCell id="BH3q-9FoLWFFWChYBNGu-9" value="" style="endArrow=none;dashed=1;html=1;dashPattern=1 3;strokeWidth=2;rounded=0;entryX=0.5;entryY=1;entryDx=0;entryDy=0;" parent="1" target="gFZsjCX-ImljTZDEBwQ--63" edge="1">
          <mxGeometry width="50" height="50" relative="1" as="geometry">
            <mxPoint x="-145" y="980" as="sourcePoint" />
            <mxPoint x="-170" y="970" as="targetPoint" />
          </mxGeometry>
        </mxCell>
        <mxCell id="BH3q-9FoLWFFWChYBNGu-11" value="" style="endArrow=none;dashed=1;html=1;dashPattern=1 3;strokeWidth=2;rounded=0;entryX=0.5;entryY=1;entryDx=0;entryDy=0;" parent="1" target="gFZsjCX-ImljTZDEBwQ--53" edge="1">
          <mxGeometry width="50" height="50" relative="1" as="geometry">
            <mxPoint x="-140" y="720" as="sourcePoint" />
            <mxPoint x="-170" y="760" as="targetPoint" />
          </mxGeometry>
        </mxCell>
        <mxCell id="BH3q-9FoLWFFWChYBNGu-12" value="" style="endArrow=none;dashed=1;html=1;dashPattern=1 3;strokeWidth=2;rounded=0;entryX=0.5;entryY=1;entryDx=0;entryDy=0;" parent="1" target="gFZsjCX-ImljTZDEBwQ--58" edge="1">
          <mxGeometry width="50" height="50" relative="1" as="geometry">
            <mxPoint x="425" y="720" as="sourcePoint" />
            <mxPoint x="429" y="760" as="targetPoint" />
          </mxGeometry>
        </mxCell>
        <mxCell id="BH3q-9FoLWFFWChYBNGu-13" value="" style="endArrow=none;dashed=1;html=1;dashPattern=1 3;strokeWidth=2;rounded=0;entryX=0.5;entryY=1;entryDx=0;entryDy=0;" parent="1" target="gFZsjCX-ImljTZDEBwQ--13" edge="1">
          <mxGeometry width="50" height="50" relative="1" as="geometry">
            <mxPoint x="1040" y="720" as="sourcePoint" />
            <mxPoint x="590" y="760" as="targetPoint" />
          </mxGeometry>
        </mxCell>
        <mxCell id="BH3q-9FoLWFFWChYBNGu-14" value="" style="endArrow=none;dashed=1;html=1;dashPattern=1 3;strokeWidth=2;rounded=0;entryX=0.5;entryY=1;entryDx=0;entryDy=0;" parent="1" target="gFZsjCX-ImljTZDEBwQ--18" edge="1">
          <mxGeometry width="50" height="50" relative="1" as="geometry">
            <mxPoint x="1625" y="720" as="sourcePoint" />
            <mxPoint x="1329" y="760" as="targetPoint" />
          </mxGeometry>
        </mxCell>
        <mxCell id="BH3q-9FoLWFFWChYBNGu-15" value="" style="endArrow=none;dashed=1;html=1;dashPattern=1 3;strokeWidth=2;rounded=0;entryX=0.5;entryY=1;entryDx=0;entryDy=0;" parent="1" target="gFZsjCX-ImljTZDEBwQ--73" edge="1">
          <mxGeometry width="50" height="50" relative="1" as="geometry">
            <mxPoint x="-140" y="1240" as="sourcePoint" />
            <mxPoint x="190" y="1240" as="targetPoint" />
          </mxGeometry>
        </mxCell>
        <mxCell id="BH3q-9FoLWFFWChYBNGu-16" value="" style="endArrow=none;dashed=1;html=1;dashPattern=1 3;strokeWidth=2;rounded=0;entryX=0.5;entryY=1;entryDx=0;entryDy=0;" parent="1" target="gFZsjCX-ImljTZDEBwQ--83" edge="1">
          <mxGeometry width="50" height="50" relative="1" as="geometry">
            <mxPoint x="-145" y="1500" as="sourcePoint" />
            <mxPoint x="190" y="1240" as="targetPoint" />
          </mxGeometry>
        </mxCell>
        <mxCell id="BH3q-9FoLWFFWChYBNGu-17" value="" style="endArrow=none;dashed=1;html=1;dashPattern=1 3;strokeWidth=2;rounded=0;entryX=0.5;entryY=1;entryDx=0;entryDy=0;" parent="1" target="gFZsjCX-ImljTZDEBwQ--88" edge="1">
          <mxGeometry width="50" height="50" relative="1" as="geometry">
            <mxPoint x="435" y="1500" as="sourcePoint" />
            <mxPoint x="789" y="1480" as="targetPoint" />
          </mxGeometry>
        </mxCell>
        <mxCell id="BH3q-9FoLWFFWChYBNGu-18" value="" style="endArrow=none;dashed=1;html=1;dashPattern=1 3;strokeWidth=2;rounded=0;entryX=0.5;entryY=1;entryDx=0;entryDy=0;" parent="1" target="gFZsjCX-ImljTZDEBwQ--43" edge="1">
          <mxGeometry width="50" height="50" relative="1" as="geometry">
            <mxPoint x="1045" y="1500" as="sourcePoint" />
            <mxPoint x="616" y="1470" as="targetPoint" />
          </mxGeometry>
        </mxCell>
        <mxCell id="BH3q-9FoLWFFWChYBNGu-19" value="" style="endArrow=none;dashed=1;html=1;dashPattern=1 3;strokeWidth=2;rounded=0;entryX=0.5;entryY=1;entryDx=0;entryDy=0;" parent="1" target="gFZsjCX-ImljTZDEBwQ--48" edge="1">
          <mxGeometry width="50" height="50" relative="1" as="geometry">
            <mxPoint x="1635" y="1500" as="sourcePoint" />
            <mxPoint x="1005" y="1470" as="targetPoint" />
          </mxGeometry>
        </mxCell>
        <mxCell id="BH3q-9FoLWFFWChYBNGu-20" value="" style="endArrow=none;dashed=1;html=1;dashPattern=1 3;strokeWidth=2;rounded=0;entryX=0.5;entryY=1;entryDx=0;entryDy=0;" parent="1" target="gFZsjCX-ImljTZDEBwQ--38" edge="1">
          <mxGeometry width="50" height="50" relative="1" as="geometry">
            <mxPoint x="1625" y="1240" as="sourcePoint" />
            <mxPoint x="1645" y="1470" as="targetPoint" />
          </mxGeometry>
        </mxCell>
        <mxCell id="BH3q-9FoLWFFWChYBNGu-21" value="" style="endArrow=none;dashed=1;html=1;dashPattern=1 3;strokeWidth=2;rounded=0;entryX=0.5;entryY=1;entryDx=0;entryDy=0;" parent="1" target="gFZsjCX-ImljTZDEBwQ--33" edge="1">
          <mxGeometry width="50" height="50" relative="1" as="geometry">
            <mxPoint x="1040" y="1240" as="sourcePoint" />
            <mxPoint x="950" y="1480" as="targetPoint" />
          </mxGeometry>
        </mxCell>
        <mxCell id="BH3q-9FoLWFFWChYBNGu-22" value="" style="endArrow=none;dashed=1;html=1;dashPattern=1 3;strokeWidth=2;rounded=0;entryX=0.5;entryY=1;entryDx=0;entryDy=0;" parent="1" target="gFZsjCX-ImljTZDEBwQ--78" edge="1">
          <mxGeometry width="50" height="50" relative="1" as="geometry">
            <mxPoint x="425" y="1240" as="sourcePoint" />
            <mxPoint x="789" y="1480" as="targetPoint" />
          </mxGeometry>
        </mxCell>
        <mxCell id="BH3q-9FoLWFFWChYBNGu-23" value="" style="endArrow=none;dashed=1;html=1;dashPattern=1 3;strokeWidth=2;rounded=0;entryX=0.5;entryY=1;entryDx=0;entryDy=0;" parent="1" target="gFZsjCX-ImljTZDEBwQ--68" edge="1">
          <mxGeometry width="50" height="50" relative="1" as="geometry">
            <mxPoint x="435" y="980" as="sourcePoint" />
            <mxPoint x="435" y="1220" as="targetPoint" />
          </mxGeometry>
        </mxCell>
        <mxCell id="BH3q-9FoLWFFWChYBNGu-24" value="" style="endArrow=none;dashed=1;html=1;dashPattern=1 3;strokeWidth=2;rounded=0;entryX=0.5;entryY=1;entryDx=0;entryDy=0;" parent="1" target="gFZsjCX-ImljTZDEBwQ--23" edge="1">
          <mxGeometry width="50" height="50" relative="1" as="geometry">
            <mxPoint x="1035" y="980" as="sourcePoint" />
            <mxPoint x="606" y="950" as="targetPoint" />
          </mxGeometry>
        </mxCell>
        <mxCell id="BH3q-9FoLWFFWChYBNGu-25" value="" style="endArrow=none;dashed=1;html=1;dashPattern=1 3;strokeWidth=2;rounded=0;entryX=0.5;entryY=1;entryDx=0;entryDy=0;" parent="1" target="gFZsjCX-ImljTZDEBwQ--28" edge="1">
          <mxGeometry width="50" height="50" relative="1" as="geometry">
            <mxPoint x="1635" y="980" as="sourcePoint" />
            <mxPoint x="1184" y="950" as="targetPoint" />
          </mxGeometry>
        </mxCell>
        <mxCell id="BH3q-9FoLWFFWChYBNGu-26" value="" style="shape=flexArrow;endArrow=classic;html=1;rounded=0;exitX=0.5;exitY=1;exitDx=0;exitDy=0;entryX=0.203;entryY=0.019;entryDx=0;entryDy=0;entryPerimeter=0;" parent="1" source="gFZsjCX-ImljTZDEBwQ--2" target="BH3q-9FoLWFFWChYBNGu-33" edge="1">
          <mxGeometry width="50" height="50" relative="1" as="geometry">
            <mxPoint x="-100" y="450" as="sourcePoint" />
            <mxPoint x="80" y="290" as="targetPoint" />
          </mxGeometry>
        </mxCell>
        <mxCell id="BH3q-9FoLWFFWChYBNGu-30" value="" style="shape=flexArrow;endArrow=classic;html=1;rounded=0;entryX=0.5;entryY=0;entryDx=0;entryDy=0;" parent="1" edge="1">
          <mxGeometry width="50" height="50" relative="1" as="geometry">
            <mxPoint x="964.63" y="445" as="sourcePoint" />
            <mxPoint x="964.63" y="525" as="targetPoint" />
          </mxGeometry>
        </mxCell>
        <mxCell id="BH3q-9FoLWFFWChYBNGu-31" value="" style="shape=flexArrow;endArrow=classic;html=1;rounded=0;entryX=0.5;entryY=0;entryDx=0;entryDy=0;" parent="1" edge="1">
          <mxGeometry width="50" height="50" relative="1" as="geometry">
            <mxPoint x="1554.5" y="445" as="sourcePoint" />
            <mxPoint x="1554.5" y="525" as="targetPoint" />
          </mxGeometry>
        </mxCell>
        <mxCell id="BH3q-9FoLWFFWChYBNGu-33" value="&lt;b&gt;&lt;font style=&quot;font-size: 16px;&quot;&gt;INPUTS&lt;/font&gt;&lt;/b&gt;" style="rounded=1;whiteSpace=wrap;html=1;" parent="1" vertex="1">
          <mxGeometry x="-310" y="415" width="1920" height="30" as="geometry" />
        </mxCell>
        <mxCell id="BeNI8mrD9HNZx70J-mXm-91" style="edgeStyle=orthogonalEdgeStyle;rounded=0;orthogonalLoop=1;jettySize=auto;html=1;entryX=0.5;entryY=0;entryDx=0;entryDy=0;shape=flexArrow;" parent="1" source="BH3q-9FoLWFFWChYBNGu-36" target="BeNI8mrD9HNZx70J-mXm-53" edge="1">
          <mxGeometry relative="1" as="geometry" />
        </mxCell>
        <mxCell id="BH3q-9FoLWFFWChYBNGu-36" value="" style="rounded=1;whiteSpace=wrap;html=1;" parent="1" vertex="1">
          <mxGeometry x="940" y="525" width="50" height="60" as="geometry" />
        </mxCell>
        <mxCell id="BeNI8mrD9HNZx70J-mXm-16" style="edgeStyle=orthogonalEdgeStyle;rounded=0;orthogonalLoop=1;jettySize=auto;html=1;exitX=0.5;exitY=1;exitDx=0;exitDy=0;entryX=0.5;entryY=0;entryDx=0;entryDy=0;shape=flexArrow;" parent="1" source="BH3q-9FoLWFFWChYBNGu-37" target="BeNI8mrD9HNZx70J-mXm-15" edge="1">
          <mxGeometry relative="1" as="geometry" />
        </mxCell>
        <mxCell id="BH3q-9FoLWFFWChYBNGu-37" value="" style="rounded=1;whiteSpace=wrap;html=1;" parent="1" vertex="1">
          <mxGeometry x="1530" y="530" width="50" height="60" as="geometry" />
        </mxCell>
        <mxCell id="BeNI8mrD9HNZx70J-mXm-1" value="&lt;b&gt;&lt;font style=&quot;font-size: 15px;&quot;&gt;EXPECTATIONS&lt;/font&gt;&lt;/b&gt;" style="rounded=1;whiteSpace=wrap;html=1;" parent="1" vertex="1">
          <mxGeometry x="130" y="360" width="1950" height="30" as="geometry" />
        </mxCell>
        <mxCell id="BeNI8mrD9HNZx70J-mXm-11" style="edgeStyle=orthogonalEdgeStyle;rounded=0;orthogonalLoop=1;jettySize=auto;html=1;entryX=0.5;entryY=0;entryDx=0;entryDy=0;shape=flexArrow;" parent="1" source="BeNI8mrD9HNZx70J-mXm-2" target="BeNI8mrD9HNZx70J-mXm-10" edge="1">
          <mxGeometry relative="1" as="geometry" />
        </mxCell>
        <mxCell id="BeNI8mrD9HNZx70J-mXm-2" value="" style="rounded=1;whiteSpace=wrap;html=1;" parent="1" vertex="1">
          <mxGeometry x="1980" y="535" width="50" height="60" as="geometry" />
        </mxCell>
        <mxCell id="BeNI8mrD9HNZx70J-mXm-3" value="" style="shape=flexArrow;endArrow=classic;html=1;rounded=0;entryX=0.5;entryY=0;entryDx=0;entryDy=0;exitX=0.961;exitY=1;exitDx=0;exitDy=0;exitPerimeter=0;" parent="1" source="BeNI8mrD9HNZx70J-mXm-1" target="BeNI8mrD9HNZx70J-mXm-2" edge="1">
          <mxGeometry width="50" height="50" relative="1" as="geometry">
            <mxPoint x="2020" y="390" as="sourcePoint" />
            <mxPoint x="2020" y="470" as="targetPoint" />
          </mxGeometry>
        </mxCell>
        <mxCell id="BeNI8mrD9HNZx70J-mXm-92" style="edgeStyle=orthogonalEdgeStyle;rounded=0;orthogonalLoop=1;jettySize=auto;html=1;entryX=0.5;entryY=0;entryDx=0;entryDy=0;shape=flexArrow;" parent="1" source="BeNI8mrD9HNZx70J-mXm-4" target="BeNI8mrD9HNZx70J-mXm-60" edge="1">
          <mxGeometry relative="1" as="geometry" />
        </mxCell>
        <mxCell id="BeNI8mrD9HNZx70J-mXm-4" value="" style="rounded=1;whiteSpace=wrap;html=1;" parent="1" vertex="1">
          <mxGeometry x="1400" y="530" width="50" height="60" as="geometry" />
        </mxCell>
        <mxCell id="BeNI8mrD9HNZx70J-mXm-120" style="edgeStyle=orthogonalEdgeStyle;rounded=0;orthogonalLoop=1;jettySize=auto;html=1;shape=flexArrow;" parent="1" source="BeNI8mrD9HNZx70J-mXm-6" edge="1">
          <mxGeometry relative="1" as="geometry">
            <mxPoint x="1205" y="140" as="targetPoint" />
          </mxGeometry>
        </mxCell>
        <mxCell id="BeNI8mrD9HNZx70J-mXm-6" value="&lt;b&gt;&lt;font style=&quot;font-size: 15px;&quot;&gt;SOLUTIONS&lt;/font&gt;&lt;/b&gt;" style="rounded=1;whiteSpace=wrap;html=1;" parent="1" vertex="1">
          <mxGeometry x="200" y="305" width="2010" height="30" as="geometry" />
        </mxCell>
        <mxCell id="BeNI8mrD9HNZx70J-mXm-7" value="" style="rounded=1;whiteSpace=wrap;html=1;" parent="1" vertex="1">
          <mxGeometry x="2100" y="630" width="50" height="60" as="geometry" />
        </mxCell>
        <mxCell id="BeNI8mrD9HNZx70J-mXm-9" style="edgeStyle=orthogonalEdgeStyle;rounded=0;orthogonalLoop=1;jettySize=auto;html=1;shape=flexArrow;" parent="1" source="BeNI8mrD9HNZx70J-mXm-7" edge="1">
          <mxGeometry relative="1" as="geometry">
            <mxPoint x="2125" y="340" as="targetPoint" />
          </mxGeometry>
        </mxCell>
        <mxCell id="BeNI8mrD9HNZx70J-mXm-24" style="edgeStyle=orthogonalEdgeStyle;rounded=0;orthogonalLoop=1;jettySize=auto;html=1;entryX=0.5;entryY=0;entryDx=0;entryDy=0;shape=flexArrow;" parent="1" source="BeNI8mrD9HNZx70J-mXm-10" target="BeNI8mrD9HNZx70J-mXm-21" edge="1">
          <mxGeometry relative="1" as="geometry" />
        </mxCell>
        <mxCell id="BeNI8mrD9HNZx70J-mXm-10" value="" style="rounded=1;whiteSpace=wrap;html=1;" parent="1" vertex="1">
          <mxGeometry x="1980" y="770" width="50" height="60" as="geometry" />
        </mxCell>
        <mxCell id="BeNI8mrD9HNZx70J-mXm-14" style="edgeStyle=orthogonalEdgeStyle;rounded=0;orthogonalLoop=1;jettySize=auto;html=1;entryX=0.5;entryY=1;entryDx=0;entryDy=0;shape=flexArrow;" parent="1" source="BeNI8mrD9HNZx70J-mXm-12" target="BeNI8mrD9HNZx70J-mXm-7" edge="1">
          <mxGeometry relative="1" as="geometry" />
        </mxCell>
        <mxCell id="BeNI8mrD9HNZx70J-mXm-12" value="" style="rounded=1;whiteSpace=wrap;html=1;" parent="1" vertex="1">
          <mxGeometry x="2100" y="880" width="50" height="60" as="geometry" />
        </mxCell>
        <mxCell id="BeNI8mrD9HNZx70J-mXm-18" style="edgeStyle=orthogonalEdgeStyle;rounded=0;orthogonalLoop=1;jettySize=auto;html=1;shape=flexArrow;" parent="1" source="BeNI8mrD9HNZx70J-mXm-15" target="BeNI8mrD9HNZx70J-mXm-17" edge="1">
          <mxGeometry relative="1" as="geometry" />
        </mxCell>
        <mxCell id="BeNI8mrD9HNZx70J-mXm-15" value="" style="rounded=1;whiteSpace=wrap;html=1;" parent="1" vertex="1">
          <mxGeometry x="1530" y="770" width="50" height="60" as="geometry" />
        </mxCell>
        <mxCell id="BeNI8mrD9HNZx70J-mXm-20" style="edgeStyle=orthogonalEdgeStyle;rounded=0;orthogonalLoop=1;jettySize=auto;html=1;shape=flexArrow;" parent="1" source="BeNI8mrD9HNZx70J-mXm-17" target="BeNI8mrD9HNZx70J-mXm-19" edge="1">
          <mxGeometry relative="1" as="geometry" />
        </mxCell>
        <mxCell id="BeNI8mrD9HNZx70J-mXm-17" value="" style="rounded=1;whiteSpace=wrap;html=1;" parent="1" vertex="1">
          <mxGeometry x="1530" y="1050" width="50" height="60" as="geometry" />
        </mxCell>
        <mxCell id="BeNI8mrD9HNZx70J-mXm-19" value="" style="rounded=1;whiteSpace=wrap;html=1;" parent="1" vertex="1">
          <mxGeometry x="1530" y="1290" width="50" height="60" as="geometry" />
        </mxCell>
        <mxCell id="BeNI8mrD9HNZx70J-mXm-23" style="edgeStyle=orthogonalEdgeStyle;rounded=0;orthogonalLoop=1;jettySize=auto;html=1;entryX=0.5;entryY=0;entryDx=0;entryDy=0;shape=flexArrow;" parent="1" source="BeNI8mrD9HNZx70J-mXm-21" target="BeNI8mrD9HNZx70J-mXm-22" edge="1">
          <mxGeometry relative="1" as="geometry" />
        </mxCell>
        <mxCell id="BeNI8mrD9HNZx70J-mXm-21" value="" style="rounded=1;whiteSpace=wrap;html=1;" parent="1" vertex="1">
          <mxGeometry x="1980" y="1040" width="50" height="60" as="geometry" />
        </mxCell>
        <mxCell id="BeNI8mrD9HNZx70J-mXm-22" value="" style="rounded=1;whiteSpace=wrap;html=1;" parent="1" vertex="1">
          <mxGeometry x="1980" y="1290" width="50" height="60" as="geometry" />
        </mxCell>
        <mxCell id="BeNI8mrD9HNZx70J-mXm-26" style="edgeStyle=orthogonalEdgeStyle;rounded=0;orthogonalLoop=1;jettySize=auto;html=1;entryX=0.5;entryY=1;entryDx=0;entryDy=0;shape=flexArrow;" parent="1" source="BeNI8mrD9HNZx70J-mXm-25" target="BeNI8mrD9HNZx70J-mXm-12" edge="1">
          <mxGeometry relative="1" as="geometry" />
        </mxCell>
        <mxCell id="BeNI8mrD9HNZx70J-mXm-25" value="" style="rounded=1;whiteSpace=wrap;html=1;" parent="1" vertex="1">
          <mxGeometry x="2100" y="1150" width="50" height="60" as="geometry" />
        </mxCell>
        <mxCell id="BeNI8mrD9HNZx70J-mXm-30" style="edgeStyle=orthogonalEdgeStyle;rounded=0;orthogonalLoop=1;jettySize=auto;html=1;entryX=0.5;entryY=1;entryDx=0;entryDy=0;shape=flexArrow;" parent="1" source="BeNI8mrD9HNZx70J-mXm-28" target="BeNI8mrD9HNZx70J-mXm-25" edge="1">
          <mxGeometry relative="1" as="geometry" />
        </mxCell>
        <mxCell id="BeNI8mrD9HNZx70J-mXm-28" value="" style="rounded=1;whiteSpace=wrap;html=1;" parent="1" vertex="1">
          <mxGeometry x="2100" y="1400" width="50" height="60" as="geometry" />
        </mxCell>
        <mxCell id="BeNI8mrD9HNZx70J-mXm-43" style="edgeStyle=orthogonalEdgeStyle;rounded=0;orthogonalLoop=1;jettySize=auto;html=1;shape=flexArrow;" parent="1" source="BeNI8mrD9HNZx70J-mXm-32" edge="1">
          <mxGeometry relative="1" as="geometry">
            <mxPoint x="1475" y="340" as="targetPoint" />
          </mxGeometry>
        </mxCell>
        <mxCell id="BeNI8mrD9HNZx70J-mXm-32" value="" style="rounded=1;whiteSpace=wrap;html=1;" parent="1" vertex="1">
          <mxGeometry x="1450" y="630" width="50" height="60" as="geometry" />
        </mxCell>
        <mxCell id="BeNI8mrD9HNZx70J-mXm-33" style="edgeStyle=orthogonalEdgeStyle;rounded=0;orthogonalLoop=1;jettySize=auto;html=1;entryX=0.5;entryY=1;entryDx=0;entryDy=0;shape=flexArrow;" parent="1" source="BeNI8mrD9HNZx70J-mXm-34" target="BeNI8mrD9HNZx70J-mXm-32" edge="1">
          <mxGeometry relative="1" as="geometry" />
        </mxCell>
        <mxCell id="BeNI8mrD9HNZx70J-mXm-34" value="" style="rounded=1;whiteSpace=wrap;html=1;" parent="1" vertex="1">
          <mxGeometry x="1450" y="880" width="50" height="60" as="geometry" />
        </mxCell>
        <mxCell id="BeNI8mrD9HNZx70J-mXm-35" style="edgeStyle=orthogonalEdgeStyle;rounded=0;orthogonalLoop=1;jettySize=auto;html=1;entryX=0.5;entryY=1;entryDx=0;entryDy=0;shape=flexArrow;" parent="1" source="BeNI8mrD9HNZx70J-mXm-36" target="BeNI8mrD9HNZx70J-mXm-34" edge="1">
          <mxGeometry relative="1" as="geometry" />
        </mxCell>
        <mxCell id="BeNI8mrD9HNZx70J-mXm-36" value="" style="rounded=1;whiteSpace=wrap;html=1;" parent="1" vertex="1">
          <mxGeometry x="1450" y="1150" width="50" height="60" as="geometry" />
        </mxCell>
        <mxCell id="BeNI8mrD9HNZx70J-mXm-37" style="edgeStyle=orthogonalEdgeStyle;rounded=0;orthogonalLoop=1;jettySize=auto;html=1;entryX=0.5;entryY=1;entryDx=0;entryDy=0;shape=flexArrow;" parent="1" source="BeNI8mrD9HNZx70J-mXm-38" target="BeNI8mrD9HNZx70J-mXm-36" edge="1">
          <mxGeometry relative="1" as="geometry" />
        </mxCell>
        <mxCell id="BeNI8mrD9HNZx70J-mXm-38" value="" style="rounded=1;whiteSpace=wrap;html=1;" parent="1" vertex="1">
          <mxGeometry x="1450" y="1400" width="50" height="60" as="geometry" />
        </mxCell>
        <mxCell id="BeNI8mrD9HNZx70J-mXm-44" value="" style="shape=flexArrow;endArrow=classic;html=1;rounded=0;entryX=0.5;entryY=0;entryDx=0;entryDy=0;exitX=0.664;exitY=1.091;exitDx=0;exitDy=0;exitPerimeter=0;" parent="1" source="BeNI8mrD9HNZx70J-mXm-1" target="BeNI8mrD9HNZx70J-mXm-4" edge="1">
          <mxGeometry width="50" height="50" relative="1" as="geometry">
            <mxPoint x="1425" y="393" as="sourcePoint" />
            <mxPoint x="2015" y="545" as="targetPoint" />
          </mxGeometry>
        </mxCell>
        <mxCell id="BeNI8mrD9HNZx70J-mXm-45" style="edgeStyle=orthogonalEdgeStyle;rounded=0;orthogonalLoop=1;jettySize=auto;html=1;exitX=0.5;exitY=1;exitDx=0;exitDy=0;entryX=0.5;entryY=0;entryDx=0;entryDy=0;shape=flexArrow;" parent="1" source="BeNI8mrD9HNZx70J-mXm-46" target="BeNI8mrD9HNZx70J-mXm-48" edge="1">
          <mxGeometry relative="1" as="geometry" />
        </mxCell>
        <mxCell id="BeNI8mrD9HNZx70J-mXm-90" style="edgeStyle=orthogonalEdgeStyle;rounded=0;orthogonalLoop=1;jettySize=auto;html=1;shape=flexArrow;" parent="1" target="BeNI8mrD9HNZx70J-mXm-46" edge="1">
          <mxGeometry relative="1" as="geometry">
            <mxPoint x="805" y="394" as="sourcePoint" />
          </mxGeometry>
        </mxCell>
        <mxCell id="BeNI8mrD9HNZx70J-mXm-46" value="" style="rounded=1;whiteSpace=wrap;html=1;" parent="1" vertex="1">
          <mxGeometry x="780" y="525" width="50" height="60" as="geometry" />
        </mxCell>
        <mxCell id="BeNI8mrD9HNZx70J-mXm-47" style="edgeStyle=orthogonalEdgeStyle;rounded=0;orthogonalLoop=1;jettySize=auto;html=1;shape=flexArrow;" parent="1" source="BeNI8mrD9HNZx70J-mXm-48" target="BeNI8mrD9HNZx70J-mXm-50" edge="1">
          <mxGeometry relative="1" as="geometry" />
        </mxCell>
        <mxCell id="BeNI8mrD9HNZx70J-mXm-48" value="" style="rounded=1;whiteSpace=wrap;html=1;" parent="1" vertex="1">
          <mxGeometry x="780" y="765" width="50" height="60" as="geometry" />
        </mxCell>
        <mxCell id="BeNI8mrD9HNZx70J-mXm-49" style="edgeStyle=orthogonalEdgeStyle;rounded=0;orthogonalLoop=1;jettySize=auto;html=1;shape=flexArrow;" parent="1" source="BeNI8mrD9HNZx70J-mXm-50" target="BeNI8mrD9HNZx70J-mXm-51" edge="1">
          <mxGeometry relative="1" as="geometry" />
        </mxCell>
        <mxCell id="BeNI8mrD9HNZx70J-mXm-50" value="" style="rounded=1;whiteSpace=wrap;html=1;" parent="1" vertex="1">
          <mxGeometry x="780" y="1045" width="50" height="60" as="geometry" />
        </mxCell>
        <mxCell id="BeNI8mrD9HNZx70J-mXm-51" value="" style="rounded=1;whiteSpace=wrap;html=1;" parent="1" vertex="1">
          <mxGeometry x="780" y="1285" width="50" height="60" as="geometry" />
        </mxCell>
        <mxCell id="BeNI8mrD9HNZx70J-mXm-52" style="edgeStyle=orthogonalEdgeStyle;rounded=0;orthogonalLoop=1;jettySize=auto;html=1;exitX=0.5;exitY=1;exitDx=0;exitDy=0;entryX=0.5;entryY=0;entryDx=0;entryDy=0;shape=flexArrow;" parent="1" source="BeNI8mrD9HNZx70J-mXm-53" target="BeNI8mrD9HNZx70J-mXm-55" edge="1">
          <mxGeometry relative="1" as="geometry" />
        </mxCell>
        <mxCell id="BeNI8mrD9HNZx70J-mXm-53" value="" style="rounded=1;whiteSpace=wrap;html=1;" parent="1" vertex="1">
          <mxGeometry x="940" y="760" width="50" height="60" as="geometry" />
        </mxCell>
        <mxCell id="BeNI8mrD9HNZx70J-mXm-54" style="edgeStyle=orthogonalEdgeStyle;rounded=0;orthogonalLoop=1;jettySize=auto;html=1;shape=flexArrow;" parent="1" source="BeNI8mrD9HNZx70J-mXm-55" target="BeNI8mrD9HNZx70J-mXm-57" edge="1">
          <mxGeometry relative="1" as="geometry" />
        </mxCell>
        <mxCell id="BeNI8mrD9HNZx70J-mXm-55" value="" style="rounded=1;whiteSpace=wrap;html=1;" parent="1" vertex="1">
          <mxGeometry x="940" y="1000" width="50" height="60" as="geometry" />
        </mxCell>
        <mxCell id="BeNI8mrD9HNZx70J-mXm-57" value="" style="rounded=1;whiteSpace=wrap;html=1;" parent="1" vertex="1">
          <mxGeometry x="940" y="1280" width="50" height="60" as="geometry" />
        </mxCell>
        <mxCell id="BeNI8mrD9HNZx70J-mXm-59" style="edgeStyle=orthogonalEdgeStyle;rounded=0;orthogonalLoop=1;jettySize=auto;html=1;exitX=0.5;exitY=1;exitDx=0;exitDy=0;entryX=0.5;entryY=0;entryDx=0;entryDy=0;shape=flexArrow;" parent="1" source="BeNI8mrD9HNZx70J-mXm-60" target="BeNI8mrD9HNZx70J-mXm-62" edge="1">
          <mxGeometry relative="1" as="geometry" />
        </mxCell>
        <mxCell id="BeNI8mrD9HNZx70J-mXm-60" value="" style="rounded=1;whiteSpace=wrap;html=1;" parent="1" vertex="1">
          <mxGeometry x="1400" y="760" width="50" height="60" as="geometry" />
        </mxCell>
        <mxCell id="BeNI8mrD9HNZx70J-mXm-61" style="edgeStyle=orthogonalEdgeStyle;rounded=0;orthogonalLoop=1;jettySize=auto;html=1;shape=flexArrow;" parent="1" source="BeNI8mrD9HNZx70J-mXm-62" target="BeNI8mrD9HNZx70J-mXm-64" edge="1">
          <mxGeometry relative="1" as="geometry" />
        </mxCell>
        <mxCell id="BeNI8mrD9HNZx70J-mXm-62" value="" style="rounded=1;whiteSpace=wrap;html=1;" parent="1" vertex="1">
          <mxGeometry x="1400" y="1000" width="50" height="60" as="geometry" />
        </mxCell>
        <mxCell id="BeNI8mrD9HNZx70J-mXm-64" value="" style="rounded=1;whiteSpace=wrap;html=1;" parent="1" vertex="1">
          <mxGeometry x="1400" y="1280" width="50" height="60" as="geometry" />
        </mxCell>
        <mxCell id="BeNI8mrD9HNZx70J-mXm-66" style="edgeStyle=orthogonalEdgeStyle;rounded=0;orthogonalLoop=1;jettySize=auto;html=1;exitX=0.5;exitY=1;exitDx=0;exitDy=0;entryX=0.5;entryY=0;entryDx=0;entryDy=0;shape=flexArrow;" parent="1" source="BeNI8mrD9HNZx70J-mXm-67" target="BeNI8mrD9HNZx70J-mXm-69" edge="1">
          <mxGeometry relative="1" as="geometry" />
        </mxCell>
        <mxCell id="BeNI8mrD9HNZx70J-mXm-89" style="edgeStyle=orthogonalEdgeStyle;rounded=0;orthogonalLoop=1;jettySize=auto;html=1;shape=flexArrow;" parent="1" target="BeNI8mrD9HNZx70J-mXm-67" edge="1">
          <mxGeometry relative="1" as="geometry">
            <mxPoint x="355" y="340" as="sourcePoint" />
          </mxGeometry>
        </mxCell>
        <mxCell id="BeNI8mrD9HNZx70J-mXm-67" value="" style="rounded=1;whiteSpace=wrap;html=1;" parent="1" vertex="1">
          <mxGeometry x="330" y="525" width="50" height="60" as="geometry" />
        </mxCell>
        <mxCell id="BeNI8mrD9HNZx70J-mXm-68" style="edgeStyle=orthogonalEdgeStyle;rounded=0;orthogonalLoop=1;jettySize=auto;html=1;shape=flexArrow;" parent="1" source="BeNI8mrD9HNZx70J-mXm-69" target="BeNI8mrD9HNZx70J-mXm-71" edge="1">
          <mxGeometry relative="1" as="geometry" />
        </mxCell>
        <mxCell id="BeNI8mrD9HNZx70J-mXm-69" value="" style="rounded=1;whiteSpace=wrap;html=1;" parent="1" vertex="1">
          <mxGeometry x="330" y="765" width="50" height="60" as="geometry" />
        </mxCell>
        <mxCell id="BeNI8mrD9HNZx70J-mXm-70" style="edgeStyle=orthogonalEdgeStyle;rounded=0;orthogonalLoop=1;jettySize=auto;html=1;shape=flexArrow;" parent="1" source="BeNI8mrD9HNZx70J-mXm-71" target="BeNI8mrD9HNZx70J-mXm-72" edge="1">
          <mxGeometry relative="1" as="geometry" />
        </mxCell>
        <mxCell id="BeNI8mrD9HNZx70J-mXm-71" value="" style="rounded=1;whiteSpace=wrap;html=1;" parent="1" vertex="1">
          <mxGeometry x="330" y="1045" width="50" height="60" as="geometry" />
        </mxCell>
        <mxCell id="BeNI8mrD9HNZx70J-mXm-72" value="" style="rounded=1;whiteSpace=wrap;html=1;" parent="1" vertex="1">
          <mxGeometry x="330" y="1285" width="50" height="60" as="geometry" />
        </mxCell>
        <mxCell id="BeNI8mrD9HNZx70J-mXm-73" style="edgeStyle=orthogonalEdgeStyle;rounded=0;orthogonalLoop=1;jettySize=auto;html=1;exitX=0.5;exitY=1;exitDx=0;exitDy=0;entryX=0.5;entryY=0;entryDx=0;entryDy=0;shape=flexArrow;" parent="1" source="BeNI8mrD9HNZx70J-mXm-74" target="BeNI8mrD9HNZx70J-mXm-76" edge="1">
          <mxGeometry relative="1" as="geometry" />
        </mxCell>
        <mxCell id="BeNI8mrD9HNZx70J-mXm-74" value="" style="rounded=1;whiteSpace=wrap;html=1;" parent="1" vertex="1">
          <mxGeometry x="210" y="525" width="50" height="60" as="geometry" />
        </mxCell>
        <mxCell id="BeNI8mrD9HNZx70J-mXm-75" style="edgeStyle=orthogonalEdgeStyle;rounded=0;orthogonalLoop=1;jettySize=auto;html=1;shape=flexArrow;" parent="1" source="BeNI8mrD9HNZx70J-mXm-76" target="BeNI8mrD9HNZx70J-mXm-78" edge="1">
          <mxGeometry relative="1" as="geometry" />
        </mxCell>
        <mxCell id="BeNI8mrD9HNZx70J-mXm-76" value="" style="rounded=1;whiteSpace=wrap;html=1;" parent="1" vertex="1">
          <mxGeometry x="210" y="765" width="50" height="60" as="geometry" />
        </mxCell>
        <mxCell id="BeNI8mrD9HNZx70J-mXm-77" style="edgeStyle=orthogonalEdgeStyle;rounded=0;orthogonalLoop=1;jettySize=auto;html=1;shape=flexArrow;" parent="1" source="BeNI8mrD9HNZx70J-mXm-78" target="BeNI8mrD9HNZx70J-mXm-79" edge="1">
          <mxGeometry relative="1" as="geometry" />
        </mxCell>
        <mxCell id="BeNI8mrD9HNZx70J-mXm-78" value="" style="rounded=1;whiteSpace=wrap;html=1;" parent="1" vertex="1">
          <mxGeometry x="210" y="1045" width="50" height="60" as="geometry" />
        </mxCell>
        <mxCell id="BeNI8mrD9HNZx70J-mXm-79" value="" style="rounded=1;whiteSpace=wrap;html=1;" parent="1" vertex="1">
          <mxGeometry x="210" y="1285" width="50" height="60" as="geometry" />
        </mxCell>
        <mxCell id="BeNI8mrD9HNZx70J-mXm-80" style="edgeStyle=orthogonalEdgeStyle;rounded=0;orthogonalLoop=1;jettySize=auto;html=1;exitX=0.5;exitY=1;exitDx=0;exitDy=0;entryX=0.5;entryY=0;entryDx=0;entryDy=0;shape=flexArrow;" parent="1" source="BeNI8mrD9HNZx70J-mXm-81" target="BeNI8mrD9HNZx70J-mXm-83" edge="1">
          <mxGeometry relative="1" as="geometry" />
        </mxCell>
        <mxCell id="BeNI8mrD9HNZx70J-mXm-81" value="" style="rounded=1;whiteSpace=wrap;html=1;" parent="1" vertex="1">
          <mxGeometry x="-240" y="510" width="50" height="60" as="geometry" />
        </mxCell>
        <mxCell id="BeNI8mrD9HNZx70J-mXm-82" style="edgeStyle=orthogonalEdgeStyle;rounded=0;orthogonalLoop=1;jettySize=auto;html=1;shape=flexArrow;" parent="1" source="BeNI8mrD9HNZx70J-mXm-83" target="BeNI8mrD9HNZx70J-mXm-85" edge="1">
          <mxGeometry relative="1" as="geometry" />
        </mxCell>
        <mxCell id="BeNI8mrD9HNZx70J-mXm-83" value="" style="rounded=1;whiteSpace=wrap;html=1;" parent="1" vertex="1">
          <mxGeometry x="-240" y="750" width="50" height="60" as="geometry" />
        </mxCell>
        <mxCell id="BeNI8mrD9HNZx70J-mXm-84" style="edgeStyle=orthogonalEdgeStyle;rounded=0;orthogonalLoop=1;jettySize=auto;html=1;shape=flexArrow;" parent="1" source="BeNI8mrD9HNZx70J-mXm-85" target="BeNI8mrD9HNZx70J-mXm-86" edge="1">
          <mxGeometry relative="1" as="geometry" />
        </mxCell>
        <mxCell id="BeNI8mrD9HNZx70J-mXm-85" value="" style="rounded=1;whiteSpace=wrap;html=1;" parent="1" vertex="1">
          <mxGeometry x="-240" y="1030" width="50" height="60" as="geometry" />
        </mxCell>
        <mxCell id="BeNI8mrD9HNZx70J-mXm-86" value="" style="rounded=1;whiteSpace=wrap;html=1;" parent="1" vertex="1">
          <mxGeometry x="-240" y="1270" width="50" height="60" as="geometry" />
        </mxCell>
        <mxCell id="BeNI8mrD9HNZx70J-mXm-87" value="" style="shape=flexArrow;endArrow=classic;html=1;rounded=0;entryX=0.5;entryY=0;entryDx=0;entryDy=0;exitX=0.049;exitY=0.941;exitDx=0;exitDy=0;exitPerimeter=0;" parent="1" source="BH3q-9FoLWFFWChYBNGu-33" target="BeNI8mrD9HNZx70J-mXm-81" edge="1">
          <mxGeometry width="50" height="50" relative="1" as="geometry">
            <mxPoint x="30" y="700" as="sourcePoint" />
            <mxPoint x="80" y="650" as="targetPoint" />
          </mxGeometry>
        </mxCell>
        <mxCell id="BeNI8mrD9HNZx70J-mXm-88" style="edgeStyle=orthogonalEdgeStyle;rounded=0;orthogonalLoop=1;jettySize=auto;html=1;shape=flexArrow;exitX=0.054;exitY=0.948;exitDx=0;exitDy=0;exitPerimeter=0;" parent="1" source="BeNI8mrD9HNZx70J-mXm-1" target="BeNI8mrD9HNZx70J-mXm-74" edge="1">
          <mxGeometry relative="1" as="geometry" />
        </mxCell>
        <mxCell id="BeNI8mrD9HNZx70J-mXm-104" style="edgeStyle=orthogonalEdgeStyle;rounded=0;orthogonalLoop=1;jettySize=auto;html=1;shape=flexArrow;" parent="1" source="BeNI8mrD9HNZx70J-mXm-93" edge="1">
          <mxGeometry relative="1" as="geometry">
            <mxPoint x="885" y="340" as="targetPoint" />
          </mxGeometry>
        </mxCell>
        <mxCell id="BeNI8mrD9HNZx70J-mXm-93" value="" style="rounded=1;whiteSpace=wrap;html=1;" parent="1" vertex="1">
          <mxGeometry x="860" y="630" width="50" height="60" as="geometry" />
        </mxCell>
        <mxCell id="BeNI8mrD9HNZx70J-mXm-94" style="edgeStyle=orthogonalEdgeStyle;rounded=0;orthogonalLoop=1;jettySize=auto;html=1;entryX=0.5;entryY=1;entryDx=0;entryDy=0;shape=flexArrow;" parent="1" source="BeNI8mrD9HNZx70J-mXm-95" target="BeNI8mrD9HNZx70J-mXm-93" edge="1">
          <mxGeometry relative="1" as="geometry" />
        </mxCell>
        <mxCell id="BeNI8mrD9HNZx70J-mXm-95" value="" style="rounded=1;whiteSpace=wrap;html=1;" parent="1" vertex="1">
          <mxGeometry x="860" y="880" width="50" height="60" as="geometry" />
        </mxCell>
        <mxCell id="BeNI8mrD9HNZx70J-mXm-96" style="edgeStyle=orthogonalEdgeStyle;rounded=0;orthogonalLoop=1;jettySize=auto;html=1;entryX=0.5;entryY=1;entryDx=0;entryDy=0;shape=flexArrow;" parent="1" source="BeNI8mrD9HNZx70J-mXm-97" target="BeNI8mrD9HNZx70J-mXm-95" edge="1">
          <mxGeometry relative="1" as="geometry" />
        </mxCell>
        <mxCell id="BeNI8mrD9HNZx70J-mXm-97" value="" style="rounded=1;whiteSpace=wrap;html=1;" parent="1" vertex="1">
          <mxGeometry x="860" y="1150" width="50" height="60" as="geometry" />
        </mxCell>
        <mxCell id="BeNI8mrD9HNZx70J-mXm-98" style="edgeStyle=orthogonalEdgeStyle;rounded=0;orthogonalLoop=1;jettySize=auto;html=1;entryX=0.5;entryY=1;entryDx=0;entryDy=0;shape=flexArrow;" parent="1" source="BeNI8mrD9HNZx70J-mXm-99" target="BeNI8mrD9HNZx70J-mXm-97" edge="1">
          <mxGeometry relative="1" as="geometry" />
        </mxCell>
        <mxCell id="BeNI8mrD9HNZx70J-mXm-99" value="" style="rounded=1;whiteSpace=wrap;html=1;" parent="1" vertex="1">
          <mxGeometry x="860" y="1400" width="50" height="60" as="geometry" />
        </mxCell>
        <mxCell id="BeNI8mrD9HNZx70J-mXm-105" style="edgeStyle=orthogonalEdgeStyle;rounded=0;orthogonalLoop=1;jettySize=auto;html=1;shape=flexArrow;" parent="1" source="BeNI8mrD9HNZx70J-mXm-106" edge="1">
          <mxGeometry relative="1" as="geometry">
            <mxPoint x="295" y="340" as="targetPoint" />
          </mxGeometry>
        </mxCell>
        <mxCell id="BeNI8mrD9HNZx70J-mXm-106" value="" style="rounded=1;whiteSpace=wrap;html=1;" parent="1" vertex="1">
          <mxGeometry x="270" y="630" width="50" height="60" as="geometry" />
        </mxCell>
        <mxCell id="BeNI8mrD9HNZx70J-mXm-107" style="edgeStyle=orthogonalEdgeStyle;rounded=0;orthogonalLoop=1;jettySize=auto;html=1;entryX=0.5;entryY=1;entryDx=0;entryDy=0;shape=flexArrow;" parent="1" source="BeNI8mrD9HNZx70J-mXm-108" target="BeNI8mrD9HNZx70J-mXm-106" edge="1">
          <mxGeometry relative="1" as="geometry" />
        </mxCell>
        <mxCell id="BeNI8mrD9HNZx70J-mXm-108" value="" style="rounded=1;whiteSpace=wrap;html=1;" parent="1" vertex="1">
          <mxGeometry x="270" y="880" width="50" height="60" as="geometry" />
        </mxCell>
        <mxCell id="BeNI8mrD9HNZx70J-mXm-109" style="edgeStyle=orthogonalEdgeStyle;rounded=0;orthogonalLoop=1;jettySize=auto;html=1;entryX=0.5;entryY=1;entryDx=0;entryDy=0;shape=flexArrow;" parent="1" source="BeNI8mrD9HNZx70J-mXm-110" target="BeNI8mrD9HNZx70J-mXm-108" edge="1">
          <mxGeometry relative="1" as="geometry" />
        </mxCell>
        <mxCell id="BeNI8mrD9HNZx70J-mXm-110" value="" style="rounded=1;whiteSpace=wrap;html=1;" parent="1" vertex="1">
          <mxGeometry x="270" y="1150" width="50" height="60" as="geometry" />
        </mxCell>
        <mxCell id="BeNI8mrD9HNZx70J-mXm-111" style="edgeStyle=orthogonalEdgeStyle;rounded=0;orthogonalLoop=1;jettySize=auto;html=1;entryX=0.5;entryY=1;entryDx=0;entryDy=0;shape=flexArrow;" parent="1" source="BeNI8mrD9HNZx70J-mXm-112" target="BeNI8mrD9HNZx70J-mXm-110" edge="1">
          <mxGeometry relative="1" as="geometry" />
        </mxCell>
        <mxCell id="BeNI8mrD9HNZx70J-mXm-112" value="" style="rounded=1;whiteSpace=wrap;html=1;" parent="1" vertex="1">
          <mxGeometry x="270" y="1400" width="50" height="60" as="geometry" />
        </mxCell>
        <mxCell id="BeNI8mrD9HNZx70J-mXm-117" style="edgeStyle=orthogonalEdgeStyle;rounded=0;orthogonalLoop=1;jettySize=auto;html=1;entryX=0.185;entryY=0;entryDx=0;entryDy=0;entryPerimeter=0;shape=flexArrow;" parent="1" source="gFZsjCX-ImljTZDEBwQ--3" target="BeNI8mrD9HNZx70J-mXm-1" edge="1">
          <mxGeometry relative="1" as="geometry" />
        </mxCell>
        <mxCell id="BeNI8mrD9HNZx70J-mXm-121" value="&lt;span style=&quot;font-size: 16px;&quot;&gt;&lt;b&gt;OUTPUT&lt;br&gt;STREAM&lt;/b&gt;&lt;/span&gt;" style="rounded=1;whiteSpace=wrap;html=1;direction=south;" parent="1" vertex="1">
          <mxGeometry x="1029" y="20" width="352" height="120" as="geometry" />
        </mxCell>
        <mxCell id="BeNI8mrD9HNZx70J-mXm-125" style="edgeStyle=orthogonalEdgeStyle;rounded=0;orthogonalLoop=1;jettySize=auto;html=1;" parent="1" source="BeNI8mrD9HNZx70J-mXm-123" edge="1">
          <mxGeometry relative="1" as="geometry">
            <mxPoint x="-500" y="725" as="targetPoint" />
          </mxGeometry>
        </mxCell>
        <mxCell id="BeNI8mrD9HNZx70J-mXm-123" value="" style="ellipse;whiteSpace=wrap;html=1;aspect=fixed;fillColor=none;" parent="1" vertex="1">
          <mxGeometry x="-380" y="690" width="70" height="70" as="geometry" />
        </mxCell>
        <mxCell id="BeNI8mrD9HNZx70J-mXm-126" value="" style="rounded=1;whiteSpace=wrap;html=1;" parent="1" vertex="1">
          <mxGeometry x="-740" y="630" width="240" height="190" as="geometry" />
        </mxCell>
        <mxCell id="BeNI8mrD9HNZx70J-mXm-127" value="CONFIG&lt;br&gt;&amp;amp;&lt;br&gt;SEED" style="text;html=1;align=center;verticalAlign=middle;resizable=0;points=[];autosize=1;strokeColor=none;fillColor=none;" parent="1" vertex="1">
          <mxGeometry x="-340" y="240" width="70" height="60" as="geometry" />
        </mxCell>
        <mxCell id="BeNI8mrD9HNZx70J-mXm-128" value="CONFIG" style="text;html=1;align=center;verticalAlign=middle;resizable=0;points=[];autosize=1;strokeColor=none;fillColor=none;" parent="1" vertex="1">
          <mxGeometry x="-35" y="-58" width="70" height="30" as="geometry" />
        </mxCell>
        <mxCell id="BeNI8mrD9HNZx70J-mXm-129" value="CONFIG &amp;amp; SEED&lt;br&gt;STREAM" style="text;html=1;align=center;verticalAlign=middle;resizable=0;points=[];autosize=1;strokeColor=none;fillColor=none;" parent="1" vertex="1">
          <mxGeometry x="-680" y="580" width="120" height="40" as="geometry" />
        </mxCell>
        <mxCell id="BeNI8mrD9HNZx70J-mXm-132" value="" style="shape=flexArrow;endArrow=classic;html=1;rounded=0;" parent="1" edge="1">
          <mxGeometry width="50" height="50" relative="1" as="geometry">
            <mxPoint x="-640" y="670" as="sourcePoint" />
            <mxPoint x="-570" y="670" as="targetPoint" />
            <Array as="points">
              <mxPoint x="-590" y="670" />
            </Array>
          </mxGeometry>
        </mxCell>
        <mxCell id="BeNI8mrD9HNZx70J-mXm-133" value="" style="shape=flexArrow;endArrow=classic;html=1;rounded=0;" parent="1" edge="1">
          <mxGeometry width="50" height="50" relative="1" as="geometry">
            <mxPoint x="-640" y="759.17" as="sourcePoint" />
            <mxPoint x="-570" y="759.17" as="targetPoint" />
          </mxGeometry>
        </mxCell>
        <mxCell id="BeNI8mrD9HNZx70J-mXm-135" value="CONFIG" style="rounded=1;whiteSpace=wrap;html=1;" parent="1" vertex="1">
          <mxGeometry x="-710" y="640" width="60" height="60" as="geometry" />
        </mxCell>
        <mxCell id="BeNI8mrD9HNZx70J-mXm-137" value="SEED" style="rounded=1;whiteSpace=wrap;html=1;" parent="1" vertex="1">
          <mxGeometry x="-705" y="750" width="50" height="60" as="geometry" />
        </mxCell>
        <mxCell id="BeNI8mrD9HNZx70J-mXm-138" value="ID" style="rounded=1;whiteSpace=wrap;html=1;" parent="1" vertex="1">
          <mxGeometry x="-705" y="720" width="50" height="30" as="geometry" />
        </mxCell>
      </root>
    </mxGraphModel>
  </diagram>
  <diagram id="Fd1GreLRNKCmfCxp4y_R" name="Stream Intreface to System">
    <mxGraphModel dx="2261" dy="843" grid="1" gridSize="10" guides="1" tooltips="1" connect="1" arrows="1" fold="1" page="1" pageScale="1" pageWidth="827" pageHeight="1169" math="0" shadow="0">
      <root>
        <mxCell id="0" />
        <mxCell id="1" parent="0" />
        <mxCell id="McgP3N2J9nY320WQgiES-1" value="CIRCUIT&lt;br&gt;CONFIG" style="rounded=1;whiteSpace=wrap;html=1;" parent="1" vertex="1">
          <mxGeometry x="290" y="150" width="120" height="220" as="geometry" />
        </mxCell>
        <mxCell id="GvWn2mHNEjVLfz61lL9J-1" value="INPUTS" style="rounded=1;whiteSpace=wrap;html=1;" parent="1" vertex="1">
          <mxGeometry x="170" y="150" width="120" height="220" as="geometry" />
        </mxCell>
        <mxCell id="GvWn2mHNEjVLfz61lL9J-2" value="INPUTS" style="rounded=1;whiteSpace=wrap;html=1;" parent="1" vertex="1">
          <mxGeometry x="50" y="150" width="120" height="220" as="geometry" />
        </mxCell>
        <mxCell id="GvWn2mHNEjVLfz61lL9J-3" value="HEADER" style="rounded=1;whiteSpace=wrap;html=1;" parent="1" vertex="1">
          <mxGeometry x="410" y="150" width="120" height="220" as="geometry" />
        </mxCell>
        <mxCell id="GvWn2mHNEjVLfz61lL9J-4" value="INPUTS" style="rounded=1;whiteSpace=wrap;html=1;" parent="1" vertex="1">
          <mxGeometry x="-140" y="150" width="120" height="220" as="geometry" />
        </mxCell>
        <mxCell id="GvWn2mHNEjVLfz61lL9J-5" value="" style="endArrow=none;dashed=1;html=1;dashPattern=1 3;strokeWidth=2;rounded=0;entryX=0;entryY=0.5;entryDx=0;entryDy=0;exitX=1;exitY=0.5;exitDx=0;exitDy=0;" parent="1" source="GvWn2mHNEjVLfz61lL9J-4" target="GvWn2mHNEjVLfz61lL9J-2" edge="1">
          <mxGeometry width="50" height="50" relative="1" as="geometry">
            <mxPoint x="10" y="540" as="sourcePoint" />
            <mxPoint x="60" y="490" as="targetPoint" />
          </mxGeometry>
        </mxCell>
        <mxCell id="GvWn2mHNEjVLfz61lL9J-6" value="ID" style="rounded=1;whiteSpace=wrap;html=1;" parent="1" vertex="1">
          <mxGeometry x="-260" y="150" width="120" height="60" as="geometry" />
        </mxCell>
        <mxCell id="GvWn2mHNEjVLfz61lL9J-7" value="SEED" style="rounded=1;whiteSpace=wrap;html=1;" parent="1" vertex="1">
          <mxGeometry x="-260" y="210" width="120" height="160" as="geometry" />
        </mxCell>
        <mxCell id="GvWn2mHNEjVLfz61lL9J-8" value="ID" style="rounded=1;whiteSpace=wrap;html=1;" parent="1" vertex="1">
          <mxGeometry x="-380" y="150" width="120" height="60" as="geometry" />
        </mxCell>
        <mxCell id="GvWn2mHNEjVLfz61lL9J-9" value="SEED" style="rounded=1;whiteSpace=wrap;html=1;" parent="1" vertex="1">
          <mxGeometry x="-380" y="210" width="120" height="160" as="geometry" />
        </mxCell>
        <mxCell id="GvWn2mHNEjVLfz61lL9J-10" value="ID" style="rounded=1;whiteSpace=wrap;html=1;" parent="1" vertex="1">
          <mxGeometry x="-560" y="150" width="120" height="60" as="geometry" />
        </mxCell>
        <mxCell id="GvWn2mHNEjVLfz61lL9J-11" value="SEED" style="rounded=1;whiteSpace=wrap;html=1;" parent="1" vertex="1">
          <mxGeometry x="-560" y="210" width="120" height="160" as="geometry" />
        </mxCell>
        <mxCell id="GvWn2mHNEjVLfz61lL9J-13" value="" style="endArrow=none;dashed=1;html=1;dashPattern=1 3;strokeWidth=2;rounded=0;entryX=0;entryY=0.5;entryDx=0;entryDy=0;exitX=1;exitY=0.5;exitDx=0;exitDy=0;" parent="1" source="GvWn2mHNEjVLfz61lL9J-11" target="GvWn2mHNEjVLfz61lL9J-9" edge="1">
          <mxGeometry width="50" height="50" relative="1" as="geometry">
            <mxPoint x="-470" y="520" as="sourcePoint" />
            <mxPoint x="-420" y="470" as="targetPoint" />
          </mxGeometry>
        </mxCell>
        <mxCell id="GvWn2mHNEjVLfz61lL9J-14" value="" style="rounded=1;whiteSpace=wrap;html=1;fillColor=none;" parent="1" vertex="1">
          <mxGeometry x="-640" y="100" width="1250" height="320" as="geometry" />
        </mxCell>
        <mxCell id="GvWn2mHNEjVLfz61lL9J-15" value="&lt;b&gt;&lt;font style=&quot;font-size: 18px;&quot;&gt;INPUT STREAM&lt;/font&gt;&lt;/b&gt;" style="text;html=1;align=center;verticalAlign=middle;resizable=0;points=[];autosize=1;strokeColor=none;fillColor=none;" parent="1" vertex="1">
          <mxGeometry x="-80" y="70" width="160" height="40" as="geometry" />
        </mxCell>
        <mxCell id="qaZArs-KjsRx07J5Tqm1-1" value="CIRCUIT&lt;br&gt;SOLUTION" style="rounded=1;whiteSpace=wrap;html=1;" parent="1" vertex="1">
          <mxGeometry x="-120" y="585" width="120" height="220" as="geometry" />
        </mxCell>
        <mxCell id="qaZArs-KjsRx07J5Tqm1-4" value="HEADER" style="rounded=1;whiteSpace=wrap;html=1;" parent="1" vertex="1">
          <mxGeometry y="585" width="120" height="220" as="geometry" />
        </mxCell>
        <mxCell id="qaZArs-KjsRx07J5Tqm1-15" value="&lt;b&gt;&lt;font style=&quot;font-size: 18px;&quot;&gt;OUTPUT STREAM&lt;/font&gt;&lt;/b&gt;" style="text;html=1;align=center;verticalAlign=middle;resizable=0;points=[];autosize=1;strokeColor=none;fillColor=none;" parent="1" vertex="1">
          <mxGeometry x="-90" y="520" width="180" height="40" as="geometry" />
        </mxCell>
        <mxCell id="qaZArs-KjsRx07J5Tqm1-16" value="" style="rounded=1;whiteSpace=wrap;html=1;fillColor=none;" parent="1" vertex="1">
          <mxGeometry x="-280" y="560" width="560" height="280" as="geometry" />
        </mxCell>
      </root>
    </mxGraphModel>
  </diagram>
  <diagram id="81pP0ae5g64c_unknNwi" name="Mental-Model">
    <mxGraphModel dx="2514" dy="2161" grid="1" gridSize="10" guides="1" tooltips="1" connect="1" arrows="1" fold="1" page="1" pageScale="1" pageWidth="827" pageHeight="1169" math="0" shadow="0">
      <root>
        <mxCell id="0" />
        <mxCell id="1" parent="0" />
        <mxCell id="svPbQfatPDEUt-FbnXJB-1" value="" style="ellipse;whiteSpace=wrap;html=1;aspect=fixed;fillColor=none;" vertex="1" parent="1">
          <mxGeometry x="-100" y="-40" width="1000" height="1000" as="geometry" />
        </mxCell>
        <mxCell id="svPbQfatPDEUt-FbnXJB-2" value="&lt;b&gt;&lt;font style=&quot;font-size: 28px;&quot;&gt;Search Space&lt;/font&gt;&lt;/b&gt;" style="text;html=1;align=center;verticalAlign=middle;resizable=0;points=[];autosize=1;strokeColor=none;fillColor=none;" vertex="1" parent="1">
          <mxGeometry x="295" y="-110" width="210" height="50" as="geometry" />
        </mxCell>
        <mxCell id="svPbQfatPDEUt-FbnXJB-3" value="&lt;b&gt;&lt;font style=&quot;font-size: 18px;&quot;&gt;FPGA&lt;br&gt;SEARCH&lt;br&gt;SPACE&lt;/font&gt;&lt;/b&gt;" style="ellipse;whiteSpace=wrap;html=1;aspect=fixed;direction=south;" vertex="1" parent="1">
          <mxGeometry x="-100" y="140" width="550" height="550" as="geometry" />
        </mxCell>
        <mxCell id="svPbQfatPDEUt-FbnXJB-4" value="&lt;b&gt;&lt;font style=&quot;font-size: 18px;&quot;&gt;FPGA&lt;br&gt;SEARCH&lt;br&gt;SPACE&lt;/font&gt;&lt;/b&gt;" style="ellipse;whiteSpace=wrap;html=1;aspect=fixed;" vertex="1" parent="1">
          <mxGeometry x="277" width="550" height="550" as="geometry" />
        </mxCell>
        <mxCell id="svPbQfatPDEUt-FbnXJB-5" value="&lt;b&gt;&lt;font style=&quot;font-size: 18px;&quot;&gt;FPGA&lt;br&gt;SEARCH&lt;br&gt;SPACE&lt;/font&gt;&lt;/b&gt;" style="ellipse;whiteSpace=wrap;html=1;aspect=fixed;" vertex="1" parent="1">
          <mxGeometry x="170" y="420" width="550" height="550" as="geometry" />
        </mxCell>
        <mxCell id="svPbQfatPDEUt-FbnXJB-6" value="AGENT" style="ellipse;whiteSpace=wrap;html=1;aspect=fixed;" vertex="1" parent="1">
          <mxGeometry x="230" y="504" width="80" height="80" as="geometry" />
        </mxCell>
        <mxCell id="svPbQfatPDEUt-FbnXJB-7" value="AGENT" style="ellipse;whiteSpace=wrap;html=1;aspect=fixed;" vertex="1" parent="1">
          <mxGeometry x="277" y="460" width="80" height="80" as="geometry" />
        </mxCell>
        <mxCell id="svPbQfatPDEUt-FbnXJB-8" value="AGENT" style="ellipse;whiteSpace=wrap;html=1;aspect=fixed;" vertex="1" parent="1">
          <mxGeometry x="334" y="430" width="80" height="80" as="geometry" />
        </mxCell>
        <mxCell id="svPbQfatPDEUt-FbnXJB-9" value="AGENT" style="ellipse;whiteSpace=wrap;html=1;aspect=fixed;" vertex="1" parent="1">
          <mxGeometry x="390" y="424" width="80" height="80" as="geometry" />
        </mxCell>
        <mxCell id="svPbQfatPDEUt-FbnXJB-14" value="AGENT" style="ellipse;whiteSpace=wrap;html=1;aspect=fixed;" vertex="1" parent="1">
          <mxGeometry x="530" y="450" width="80" height="80" as="geometry" />
        </mxCell>
        <mxCell id="svPbQfatPDEUt-FbnXJB-15" value="AGENT" style="ellipse;whiteSpace=wrap;html=1;aspect=fixed;" vertex="1" parent="1">
          <mxGeometry x="580" y="490" width="80" height="80" as="geometry" />
        </mxCell>
        <mxCell id="svPbQfatPDEUt-FbnXJB-16" value="AGENT" style="ellipse;whiteSpace=wrap;html=1;aspect=fixed;" vertex="1" parent="1">
          <mxGeometry x="620" y="544" width="80" height="80" as="geometry" />
        </mxCell>
        <mxCell id="svPbQfatPDEUt-FbnXJB-18" value="AGENT" style="ellipse;whiteSpace=wrap;html=1;aspect=fixed;" vertex="1" parent="1">
          <mxGeometry x="460" y="424" width="80" height="80" as="geometry" />
        </mxCell>
      </root>
    </mxGraphModel>
  </diagram>
  <diagram id="sQY94ie1-cqt0SLPptBp" name="Search Agent">
    <mxGraphModel dx="1434" dy="843" grid="1" gridSize="10" guides="1" tooltips="1" connect="1" arrows="1" fold="1" page="1" pageScale="1" pageWidth="827" pageHeight="1169" math="0" shadow="0">
      <root>
        <mxCell id="0" />
        <mxCell id="1" parent="0" />
        <mxCell id="pumsoGpKVUzs3FBrruxl-1" value="" style="rounded=1;whiteSpace=wrap;html=1;" vertex="1" parent="1">
          <mxGeometry x="120" y="160" width="1140" height="720" as="geometry" />
        </mxCell>
        <mxCell id="pumsoGpKVUzs3FBrruxl-14" style="edgeStyle=orthogonalEdgeStyle;rounded=0;orthogonalLoop=1;jettySize=auto;html=1;shape=flexArrow;" edge="1" parent="1" source="pumsoGpKVUzs3FBrruxl-2" target="pumsoGpKVUzs3FBrruxl-6">
          <mxGeometry relative="1" as="geometry" />
        </mxCell>
        <mxCell id="pumsoGpKVUzs3FBrruxl-2" value="&lt;b&gt;&lt;font style=&quot;font-size: 16px;&quot;&gt;Input&lt;br&gt;Store&lt;/font&gt;&lt;/b&gt;" style="rounded=1;whiteSpace=wrap;html=1;" vertex="1" parent="1">
          <mxGeometry x="210" y="240" width="120" height="220" as="geometry" />
        </mxCell>
        <mxCell id="pumsoGpKVUzs3FBrruxl-13" style="edgeStyle=orthogonalEdgeStyle;rounded=0;orthogonalLoop=1;jettySize=auto;html=1;exitX=0.5;exitY=1;exitDx=0;exitDy=0;shape=flexArrow;" edge="1" parent="1" source="pumsoGpKVUzs3FBrruxl-3" target="pumsoGpKVUzs3FBrruxl-5">
          <mxGeometry relative="1" as="geometry" />
        </mxCell>
        <mxCell id="pumsoGpKVUzs3FBrruxl-3" value="&lt;b&gt;&lt;font style=&quot;font-size: 16px;&quot;&gt;Output&lt;br&gt;Store&lt;/font&gt;&lt;/b&gt;" style="rounded=1;whiteSpace=wrap;html=1;" vertex="1" parent="1">
          <mxGeometry x="1070" y="240" width="120" height="220" as="geometry" />
        </mxCell>
        <mxCell id="pumsoGpKVUzs3FBrruxl-4" value="&lt;b&gt;&lt;font style=&quot;font-size: 16px;&quot;&gt;Controller&lt;/font&gt;&lt;/b&gt;" style="rounded=1;whiteSpace=wrap;html=1;" vertex="1" parent="1">
          <mxGeometry x="220" y="650" width="120" height="110" as="geometry" />
        </mxCell>
        <mxCell id="pumsoGpKVUzs3FBrruxl-5" value="&lt;b&gt;&lt;font style=&quot;font-size: 16px;&quot;&gt;Comparator&lt;/font&gt;&lt;/b&gt;" style="rounded=1;whiteSpace=wrap;html=1;" vertex="1" parent="1">
          <mxGeometry x="1070" y="650" width="120" height="110" as="geometry" />
        </mxCell>
        <mxCell id="pumsoGpKVUzs3FBrruxl-11" style="edgeStyle=orthogonalEdgeStyle;rounded=0;orthogonalLoop=1;jettySize=auto;html=1;shape=flexArrow;" edge="1" parent="1" source="pumsoGpKVUzs3FBrruxl-6" target="pumsoGpKVUzs3FBrruxl-7">
          <mxGeometry relative="1" as="geometry" />
        </mxCell>
        <mxCell id="pumsoGpKVUzs3FBrruxl-18" style="edgeStyle=orthogonalEdgeStyle;rounded=0;orthogonalLoop=1;jettySize=auto;html=1;exitX=1;exitY=0.5;exitDx=0;exitDy=0;dashed=1;" edge="1" parent="1" source="pumsoGpKVUzs3FBrruxl-4" target="pumsoGpKVUzs3FBrruxl-6">
          <mxGeometry relative="1" as="geometry" />
        </mxCell>
        <mxCell id="pumsoGpKVUzs3FBrruxl-6" value="&lt;b&gt;&lt;font style=&quot;font-size: 16px;&quot;&gt;Gate&lt;br&gt;Search&lt;br&gt;Layer&lt;/font&gt;&lt;/b&gt;" style="rounded=1;whiteSpace=wrap;html=1;" vertex="1" parent="1">
          <mxGeometry x="390" y="280" width="150" height="330" as="geometry" />
        </mxCell>
        <mxCell id="pumsoGpKVUzs3FBrruxl-9" style="edgeStyle=orthogonalEdgeStyle;rounded=0;orthogonalLoop=1;jettySize=auto;html=1;entryX=0;entryY=0.5;entryDx=0;entryDy=0;dashed=1;shape=link;" edge="1" parent="1" source="pumsoGpKVUzs3FBrruxl-7" target="pumsoGpKVUzs3FBrruxl-8">
          <mxGeometry relative="1" as="geometry" />
        </mxCell>
        <mxCell id="pumsoGpKVUzs3FBrruxl-17" style="edgeStyle=orthogonalEdgeStyle;rounded=0;orthogonalLoop=1;jettySize=auto;html=1;exitX=0.5;exitY=1;exitDx=0;exitDy=0;entryX=0.5;entryY=1;entryDx=0;entryDy=0;dashed=1;" edge="1" parent="1" target="pumsoGpKVUzs3FBrruxl-7">
          <mxGeometry relative="1" as="geometry">
            <mxPoint x="340" y="700" as="sourcePoint" />
          </mxGeometry>
        </mxCell>
        <mxCell id="pumsoGpKVUzs3FBrruxl-7" value="&lt;b&gt;&lt;font style=&quot;font-size: 16px;&quot;&gt;Gate&lt;br&gt;Search&lt;br&gt;Layer&lt;/font&gt;&lt;/b&gt;" style="rounded=1;whiteSpace=wrap;html=1;" vertex="1" parent="1">
          <mxGeometry x="580" y="280" width="150" height="330" as="geometry" />
        </mxCell>
        <mxCell id="pumsoGpKVUzs3FBrruxl-12" style="edgeStyle=orthogonalEdgeStyle;rounded=0;orthogonalLoop=1;jettySize=auto;html=1;entryX=0;entryY=0.5;entryDx=0;entryDy=0;shape=flexArrow;" edge="1" parent="1" target="pumsoGpKVUzs3FBrruxl-5">
          <mxGeometry relative="1" as="geometry">
            <mxPoint x="900" y="445" as="sourcePoint" />
            <mxPoint x="1023" y="650" as="targetPoint" />
            <Array as="points">
              <mxPoint x="960" y="445" />
              <mxPoint x="960" y="446" />
              <mxPoint x="1020" y="446" />
              <mxPoint x="1020" y="705" />
            </Array>
          </mxGeometry>
        </mxCell>
        <mxCell id="pumsoGpKVUzs3FBrruxl-8" value="&lt;b&gt;&lt;font style=&quot;font-size: 16px;&quot;&gt;Gate&lt;br&gt;Search&lt;br&gt;Layer&lt;/font&gt;&lt;/b&gt;" style="rounded=1;whiteSpace=wrap;html=1;" vertex="1" parent="1">
          <mxGeometry x="827" y="280" width="150" height="330" as="geometry" />
        </mxCell>
        <mxCell id="pumsoGpKVUzs3FBrruxl-16" style="edgeStyle=orthogonalEdgeStyle;rounded=0;orthogonalLoop=1;jettySize=auto;html=1;exitX=1;exitY=0.5;exitDx=0;exitDy=0;entryX=0.587;entryY=1.003;entryDx=0;entryDy=0;entryPerimeter=0;dashed=1;" edge="1" parent="1" source="pumsoGpKVUzs3FBrruxl-4" target="pumsoGpKVUzs3FBrruxl-8">
          <mxGeometry relative="1" as="geometry" />
        </mxCell>
        <mxCell id="pumsoGpKVUzs3FBrruxl-19" value="&lt;b&gt;&lt;font style=&quot;font-size: 14px;&quot;&gt;Config&lt;br&gt;&amp;amp;&lt;br&gt;SEED&lt;/font&gt;&lt;/b&gt;" style="text;html=1;align=center;verticalAlign=middle;whiteSpace=wrap;rounded=0;" vertex="1" parent="1">
          <mxGeometry x="620" y="730" width="60" height="30" as="geometry" />
        </mxCell>
        <mxCell id="pumsoGpKVUzs3FBrruxl-31" value="&lt;b&gt;&lt;font style=&quot;font-size: 26px;&quot;&gt;Search Agent&lt;/font&gt;&lt;/b&gt;" style="text;html=1;align=center;verticalAlign=middle;resizable=0;points=[];autosize=1;strokeColor=none;fillColor=none;" vertex="1" parent="1">
          <mxGeometry x="595" y="113" width="190" height="40" as="geometry" />
        </mxCell>
      </root>
    </mxGraphModel>
  </diagram>
  <diagram id="mR6mhtjLcHKCudZdbI2s" name="Gate Search Layer">
    <mxGraphModel dx="2261" dy="843" grid="1" gridSize="10" guides="1" tooltips="1" connect="1" arrows="1" fold="1" page="1" pageScale="1" pageWidth="827" pageHeight="1169" math="0" shadow="0">
      <root>
        <mxCell id="0" />
        <mxCell id="1" parent="0" />
        <mxCell id="Ep6bwSmThTkCSGjRtohP-1" value="" style="rounded=1;whiteSpace=wrap;html=1;" vertex="1" parent="1">
          <mxGeometry x="-61" y="420" width="950" height="560" as="geometry" />
        </mxCell>
        <mxCell id="Qln_UFOYFo1Vtom4c7bB-3" style="edgeStyle=orthogonalEdgeStyle;rounded=0;orthogonalLoop=1;jettySize=auto;html=1;exitX=1;exitY=0.5;exitDx=0;exitDy=0;entryX=0;entryY=0.5;entryDx=0;entryDy=0;" edge="1" parent="1" source="Ep6bwSmThTkCSGjRtohP-3" target="Ep6bwSmThTkCSGjRtohP-4">
          <mxGeometry relative="1" as="geometry" />
        </mxCell>
        <mxCell id="Qln_UFOYFo1Vtom4c7bB-6" style="edgeStyle=orthogonalEdgeStyle;rounded=0;orthogonalLoop=1;jettySize=auto;html=1;" edge="1" parent="1" target="Ep6bwSmThTkCSGjRtohP-3">
          <mxGeometry relative="1" as="geometry">
            <mxPoint x="31" y="630" as="sourcePoint" />
          </mxGeometry>
        </mxCell>
        <mxCell id="Ep6bwSmThTkCSGjRtohP-3" value="&lt;b&gt;&lt;font style=&quot;font-size: 16px;&quot;&gt;Wire&lt;br&gt;Selection&lt;/font&gt;&lt;/b&gt;" style="rounded=1;whiteSpace=wrap;html=1;" vertex="1" parent="1">
          <mxGeometry x="190" y="500" width="120" height="260" as="geometry" />
        </mxCell>
        <mxCell id="Qln_UFOYFo1Vtom4c7bB-4" style="edgeStyle=orthogonalEdgeStyle;rounded=0;orthogonalLoop=1;jettySize=auto;html=1;entryX=0;entryY=0.5;entryDx=0;entryDy=0;" edge="1" parent="1" source="Ep6bwSmThTkCSGjRtohP-4" target="Ep6bwSmThTkCSGjRtohP-5">
          <mxGeometry relative="1" as="geometry" />
        </mxCell>
        <mxCell id="Ep6bwSmThTkCSGjRtohP-4" value="&lt;b&gt;&lt;font style=&quot;font-size: 16px;&quot;&gt;Gate&lt;br&gt;Selection&lt;/font&gt;&lt;/b&gt;" style="rounded=1;whiteSpace=wrap;html=1;" vertex="1" parent="1">
          <mxGeometry x="352" y="500" width="120" height="260" as="geometry" />
        </mxCell>
        <mxCell id="Ep6bwSmThTkCSGjRtohP-10" style="edgeStyle=orthogonalEdgeStyle;rounded=0;orthogonalLoop=1;jettySize=auto;html=1;entryX=0.5;entryY=1;entryDx=0;entryDy=0;" edge="1" parent="1" source="Ep6bwSmThTkCSGjRtohP-8" target="Ep6bwSmThTkCSGjRtohP-5">
          <mxGeometry relative="1" as="geometry" />
        </mxCell>
        <mxCell id="Ep6bwSmThTkCSGjRtohP-5" value="&lt;b&gt;&lt;font style=&quot;font-size: 16px;&quot;&gt;Wire&lt;br&gt;Selection&lt;/font&gt;&lt;/b&gt;" style="rounded=1;whiteSpace=wrap;html=1;" vertex="1" parent="1">
          <mxGeometry x="520" y="500" width="120" height="260" as="geometry" />
        </mxCell>
        <mxCell id="Ep6bwSmThTkCSGjRtohP-11" style="edgeStyle=orthogonalEdgeStyle;rounded=0;orthogonalLoop=1;jettySize=auto;html=1;entryX=0.5;entryY=1;entryDx=0;entryDy=0;" edge="1" parent="1" source="Ep6bwSmThTkCSGjRtohP-6" target="Ep6bwSmThTkCSGjRtohP-8">
          <mxGeometry relative="1" as="geometry" />
        </mxCell>
        <mxCell id="Ep6bwSmThTkCSGjRtohP-15" style="edgeStyle=orthogonalEdgeStyle;rounded=0;orthogonalLoop=1;jettySize=auto;html=1;exitX=0.5;exitY=1;exitDx=0;exitDy=0;entryX=0.5;entryY=1;entryDx=0;entryDy=0;dashed=1;" edge="1" parent="1" target="Ep6bwSmThTkCSGjRtohP-6">
          <mxGeometry relative="1" as="geometry">
            <mxPoint x="640" y="850" as="sourcePoint" />
            <Array as="points">
              <mxPoint x="640" y="851" />
              <mxPoint x="530" y="851" />
              <mxPoint x="530" y="950" />
              <mxPoint x="300" y="950" />
            </Array>
          </mxGeometry>
        </mxCell>
        <mxCell id="Ep6bwSmThTkCSGjRtohP-6" value="&lt;b&gt;&lt;font style=&quot;font-size: 16px;&quot;&gt;PRNG&lt;/font&gt;&lt;/b&gt;" style="rounded=1;whiteSpace=wrap;html=1;" vertex="1" parent="1">
          <mxGeometry x="240" y="870" width="120" height="60" as="geometry" />
        </mxCell>
        <mxCell id="Ep6bwSmThTkCSGjRtohP-12" style="edgeStyle=orthogonalEdgeStyle;rounded=0;orthogonalLoop=1;jettySize=auto;html=1;entryX=0.5;entryY=1;entryDx=0;entryDy=0;" edge="1" parent="1" source="Ep6bwSmThTkCSGjRtohP-7" target="Ep6bwSmThTkCSGjRtohP-4">
          <mxGeometry relative="1" as="geometry">
            <Array as="points">
              <mxPoint x="440" y="780" />
              <mxPoint x="412" y="780" />
            </Array>
          </mxGeometry>
        </mxCell>
        <mxCell id="Ep6bwSmThTkCSGjRtohP-7" value="&lt;b&gt;&lt;font style=&quot;font-size: 16px;&quot;&gt;PRNG&lt;/font&gt;&lt;/b&gt;" style="rounded=1;whiteSpace=wrap;html=1;" vertex="1" parent="1">
          <mxGeometry x="380" y="870" width="120" height="60" as="geometry" />
        </mxCell>
        <mxCell id="Ep6bwSmThTkCSGjRtohP-9" style="edgeStyle=orthogonalEdgeStyle;rounded=0;orthogonalLoop=1;jettySize=auto;html=1;entryX=0.5;entryY=1;entryDx=0;entryDy=0;" edge="1" parent="1" source="Ep6bwSmThTkCSGjRtohP-8" target="Ep6bwSmThTkCSGjRtohP-3">
          <mxGeometry relative="1" as="geometry" />
        </mxCell>
        <mxCell id="Ep6bwSmThTkCSGjRtohP-8" value="Safe&lt;br&gt;Wire&lt;br&gt;Permutation" style="rounded=1;whiteSpace=wrap;html=1;" vertex="1" parent="1">
          <mxGeometry x="50" y="760" width="120" height="120" as="geometry" />
        </mxCell>
        <mxCell id="Ep6bwSmThTkCSGjRtohP-14" style="edgeStyle=orthogonalEdgeStyle;rounded=0;orthogonalLoop=1;jettySize=auto;html=1;entryX=0.5;entryY=1;entryDx=0;entryDy=0;dashed=1;" edge="1" parent="1" source="Ep6bwSmThTkCSGjRtohP-13" target="Ep6bwSmThTkCSGjRtohP-7">
          <mxGeometry relative="1" as="geometry" />
        </mxCell>
        <mxCell id="Ep6bwSmThTkCSGjRtohP-13" value="Controller" style="rounded=1;whiteSpace=wrap;html=1;" vertex="1" parent="1">
          <mxGeometry x="640" y="810" width="120" height="80" as="geometry" />
        </mxCell>
        <mxCell id="Ep6bwSmThTkCSGjRtohP-16" value="&lt;b&gt;&lt;font style=&quot;font-size: 14px;&quot;&gt;SEED&lt;br&gt;&amp;amp;&lt;br&gt;Control&lt;/font&gt;&lt;/b&gt;" style="text;html=1;align=center;verticalAlign=middle;whiteSpace=wrap;rounded=0;" vertex="1" parent="1">
          <mxGeometry x="580" y="910" width="60" height="30" as="geometry" />
        </mxCell>
        <mxCell id="Ep6bwSmThTkCSGjRtohP-17" value="&lt;b&gt;&lt;font style=&quot;font-size: 26px;&quot;&gt;Gate Search Layer&lt;/font&gt;&lt;/b&gt;" style="text;html=1;align=center;verticalAlign=middle;whiteSpace=wrap;rounded=0;" vertex="1" parent="1">
          <mxGeometry x="279" y="380" width="270" height="30" as="geometry" />
        </mxCell>
        <mxCell id="Qln_UFOYFo1Vtom4c7bB-7" style="edgeStyle=orthogonalEdgeStyle;rounded=0;orthogonalLoop=1;jettySize=auto;html=1;" edge="1" parent="1">
          <mxGeometry relative="1" as="geometry">
            <mxPoint x="799" y="629.5" as="targetPoint" />
            <mxPoint x="640" y="629.5" as="sourcePoint" />
          </mxGeometry>
        </mxCell>
        <mxCell id="Qln_UFOYFo1Vtom4c7bB-8" value="&lt;b&gt;&lt;font style=&quot;font-size: 16px;&quot;&gt;Input&lt;/font&gt;&lt;/b&gt;" style="text;html=1;align=center;verticalAlign=middle;whiteSpace=wrap;rounded=0;" vertex="1" parent="1">
          <mxGeometry x="50" y="590" width="60" height="30" as="geometry" />
        </mxCell>
        <mxCell id="Qln_UFOYFo1Vtom4c7bB-9" value="&lt;b&gt;&lt;font style=&quot;font-size: 16px;&quot;&gt;Output&lt;/font&gt;&lt;/b&gt;" style="text;html=1;align=center;verticalAlign=middle;whiteSpace=wrap;rounded=0;" vertex="1" parent="1">
          <mxGeometry x="710" y="590" width="60" height="30" as="geometry" />
        </mxCell>
      </root>
    </mxGraphModel>
  </diagram>
</mxfile>
